<?xml version="1.0" standalone="no"?>
<!DOCTYPE svg PUBLIC "-//W3C//DTD SVG 1.1//EN" "http://www.w3.org/Graphics/SVG/1.1/DTD/svg11.dtd" >
<svg xmlns="http://www.w3.org/2000/svg" xmlns:xlink="http://www.w3.org/1999/xlink" version="1.1">
<metadata>
Created by FontForge 20141024 at Tue Dec 22 06:18:36 2015
 By Jimmy Warting
Created by Youssef Habchi http://youssef-habchi.com. Free for personnal and commercial use. 2014
</metadata>
<defs>
<font id="Kirvy-Light" horiz-adv-x="759" >
  <font-face 
    font-family="Kirvy"
    font-weight="300"
    font-stretch="normal"
    units-per-em="1000"
    panose-1="0 0 5 3 0 0 0 0 0 0"
    ascent="800"
    descent="-200"
    x-height="578.729"
    cap-height="784"
    bbox="38 -208.471 1003.88 977.62"
    underline-thickness="50"
    underline-position="-100"
    stemh="50"
    stemv="50"
    unicode-range="U+0020-20AC"
  />
<missing-glyph horiz-adv-x="500" 
d="M50 0v533h400v-533h-400zM100 50h300v433h-300v-433z" />
    <glyph glyph-name=".notdef" horiz-adv-x="500" 
d="M50 0v533h400v-533h-400zM100 50h300v433h-300v-433z" />
    <glyph glyph-name="space" unicode=" " horiz-adv-x="280" 
 />
    <glyph glyph-name="exclam" unicode="!" horiz-adv-x="204" 
d="M221.47 313.33v470.67h50.0732v-470.67h-50.0732zM246.897 98.6592c27.3564 0 46.1152 -20.3223 46.1143 -49.2432c0 -28.1367 -17.9766 -49.2412 -46.8965 -49.2412c-27.3564 0 -46.1162 21.1035 -46.1162 49.2412c0 28.9209 19.542 49.2432 46.8984 49.2432z" />
    <glyph glyph-name="quotedbl" unicode="&#x22;" horiz-adv-x="273" 
d="M70 623v161h50v-161h-50zM152.49 623v161h50v-161h-50z" />
    <glyph glyph-name="numbersign" unicode="#" horiz-adv-x="680" 
d="M633.094 784l-83.0381 -249.829h83.04v-48.9863h-99.2852l-54.6816 -164.879h85.7383v-48.9854h-101.984l-89.9229 -271.146l-52.1133 -0.155273l90.4248 271.303h-220.776l-89.9941 -271.303h-51.501l89.8848 271.303h-75.8789v48.9854h92.125l54.6807 164.879h-78.5781
v48.9863h94.8242l82.8701 249.828h51.4961l-82.7568 -249.828h220.777l82.8369 249.828h51.8125zM427.519 320.307l54.6787 164.879h-220.776l-54.6797 -164.879h220.777z" />
    <glyph glyph-name="dollar" unicode="$" horiz-adv-x="549" 
d="M479.052 314.329c13.1543 -22.9971 19.8223 -50.1006 19.8213 -80.5615c0 -27.4697 -4.66699 -53.4375 -13.8711 -77.1777c-9.59863 -24.7568 -23.8965 -46.498 -42.501 -64.623c-34.4277 -33.54 -82.3564 -53.2363 -139.657 -57.6201v-34.3291h-50v33.9229
c-47.1426 2.06445 -83.9492 10.2422 -114.465 25.3037c-38.5215 19.0127 -61.4092 47.0928 -77.0449 69.4316l-14.3359 20.4805l40.9629 28.6719l14.3359 -20.4805c25.1738 -35.9648 56.0381 -68.5273 150.549 -73.3281v295.339
c-42.5957 12.1445 -85.0176 25.8633 -119.009 48.3906c-22.9941 15.2383 -40.0117 32.9229 -52.0293 54.0625c-13.2734 23.3525 -20.0039 50.8896 -20.0039 81.8467c0 52.7012 17.4961 96.7871 50.5986 127.489c32.7402 30.3662 79.9141 47.5215 140.444 51.1484v41.7041h50
v-42.5361c58.9756 -7.40918 112.728 -40.9023 150.193 -94.4268l14.3359 -20.4814l-40.9639 -28.6709l-14.3359 20.4814c-27.834 39.7676 -66.709 65.3105 -109.229 72.5439v-273.645c44.4873 -12.5303 89.2559 -26.3516 124.675 -49.7051
c22.7715 -15.0127 39.6279 -32.4248 51.5303 -53.2314zM161.456 469.424c24.7275 -16.3867 57.3711 -27.9053 91.3867 -38.002v260.798c-93.623 -6.30371 -141.042 -49.4736 -141.042 -128.565c0 -42.4102 15.3145 -71.4717 49.6553 -94.2305zM302.845 84.5518
c90.7451 8.49609 146.03 64.0371 146.03 149.216c0 41.3721 -15.0742 69.7607 -48.8779 92.0488c-26.2324 17.2959 -60.2402 28.7705 -97.1523 39.4561v-280.721z" />
    <glyph glyph-name="percent" unicode="%" horiz-adv-x="626" 
d="M508.973 784.006l54.8926 -0.00585938l-452.661 -783.98h-55zM176.735 507.797c-69.8818 0 -126.735 59.7109 -126.734 133.104c0 73.3936 56.8525 133.104 126.734 133.104c69.8828 0 126.736 -59.708 126.736 -133.104c0 -73.3936 -56.8525 -133.104 -126.736 -133.104
zM176.735 726.411c-43.6377 0 -79.1396 -38.3594 -79.1396 -85.5107c0 -47.1494 35.502 -85.5088 79.1396 -85.5088c43.6396 0 79.1426 38.3604 79.1426 85.5088c0 47.1514 -35.5029 85.5107 -79.1426 85.5107zM449.892 266.53c69.8828 0 126.737 -59.7119 126.737 -133.104
s-56.8545 -133.104 -126.737 -133.104c-69.8818 0 -126.735 59.7109 -126.735 133.104c0 73.3926 56.8535 133.104 126.735 133.104zM449.893 47.917c43.6387 0 79.1416 38.3584 79.1416 85.5088c0 47.1514 -35.5029 85.5098 -79.1416 85.5098
c-43.6377 0 -79.1396 -38.3604 -79.1396 -85.5098c0 -47.1504 35.502 -85.5088 79.1396 -85.5088z" />
    <glyph glyph-name="ampersand" unicode="&#x26;" horiz-adv-x="663" 
d="M609.919 -28.0186c-52.7471 16.3545 -109.648 64.501 -148.793 102.845c-53.249 -49.1855 -121.196 -74.8506 -199.684 -74.8506c-59.2832 0 -111.208 15.5957 -150.158 45.0977c-37.5908 28.4727 -61.3975 67.9414 -68.8496 114.146
c-9.55371 59.2432 9.18262 122.615 52.7549 178.447c28.8232 36.9326 67.5371 69.2959 114.354 95.9219c-6.91406 14.9756 -13.249 29.7129 -18.9609 44.1289c-30.5342 77.0635 -42.1699 141.52 -34.5869 191.576c5.43652 35.8838 20.6885 64.0068 45.332 83.5889
c25.5938 20.335 60.7432 30.6455 104.47 30.6455c46.8154 0 87.5137 -13.1338 117.692 -37.9795c28.1162 -23.1504 46.166 -55.1533 52.1953 -92.5508c7.01172 -43.4785 -3.03223 -89.4697 -28.2832 -129.498c-27.3008 -43.2793 -69.458 -75.3369 -121.914 -92.707
c-17.4941 -5.79297 -34.2197 -12.2383 -50.1133 -19.2959c20.2705 -38.8535 44.4668 -79.3701 72.1279 -120.363c36.126 -53.5381 74.6143 -102.519 112.347 -143.877c1.50293 2.03711 2.99609 4.10938 4.46289 6.20898c48.7305 69.6768 74.4893 172.074 74.4893 296.126
h49.4082c0 -66.7656 -7.04395 -128.189 -20.9365 -182.563c-14.0352 -54.9395 -35.0547 -102.677 -62.4736 -141.881c-3.3418 -4.77734 -6.77734 -9.43066 -10.3018 -13.9443c48.7734 -47.9785 94.5293 -81.0166 130.05 -92.0303zM231.375 389.181
c-39.9922 -23.1006 -72.8896 -50.7158 -97.2344 -81.9131c-35.0225 -44.876 -50.2686 -94.6611 -42.9277 -140.185c11.707 -72.5996 76.9365 -117.699 170.229 -117.699c65.9404 0 121.342 20.4385 165.357 60.8818c-41.291 44.7861 -82.3262 97.0264 -120.252 153.23
c-28.373 42.0508 -53.7061 84.4531 -75.1729 125.685zM305.8 734.121c-80.6797 0 -96.2559 -41.2227 -100.952 -72.2285c-7.5 -49.5059 10.4141 -122.509 48.7471 -206.021c17.8994 8.02734 36.7139 15.3203 56.3652 21.8271
c89.7139 29.7061 126.742 106.717 116.951 167.435c-8.98438 55.7217 -54.2627 88.9883 -121.111 88.9883z" />
    <glyph glyph-name="quotesingle" unicode="'" horiz-adv-x="237" 
d="M97 782.239l50 0.000976562v-23.6699c0.000976562 -89.9424 -46.5596 -142.563 -48.541 -144.759l-37.1182 33.501l-0.108398 -0.121094c1.45996 1.66309 35.7686 41.5059 35.7676 111.378v23.6699z" />
    <glyph glyph-name="parenleft" unicode="(" horiz-adv-x="353" 
d="M299.208 -128.532c-65.8867 0 -126.366 49.7979 -170.298 140.22c-41.2129 84.8252 -63.9102 197.066 -63.9102 316.045s22.6963 231.22 63.9102 316.046c43.9316 90.4229 104.412 140.221 170.298 140.221v-48.7451c-22.2744 0 -44.3701 -9.4043 -65.6738 -27.9512
c-22.1846 -19.3115 -43.2002 -48.6445 -60.7793 -84.8262c-38.0527 -78.3213 -59.0088 -182.997 -59.0088 -294.744s20.9561 -216.423 59.0088 -294.743c17.5791 -36.1836 38.5967 -65.5156 60.7793 -84.8271c21.3037 -18.5459 43.3984 -27.9492 65.6738 -27.9492v-48.7451z
" />
    <glyph glyph-name="parenright" unicode=")" horiz-adv-x="342" 
d="M48 -128.532v48.7451c22.2744 0 44.3701 9.40332 65.6738 27.9502c22.1816 19.3115 43.2002 48.6436 60.7793 84.8271c38.0527 78.3203 59.0088 182.996 59.0088 294.743s-20.9561 216.422 -59.0088 294.744c-17.5791 36.1816 -38.5957 65.5146 -60.7793 84.8271
c-21.3037 18.5469 -43.4004 27.9512 -65.6738 27.9512v48.7451c65.8857 0 126.366 -49.7979 170.298 -140.22c41.2129 -84.8262 63.9102 -197.066 63.9102 -316.047s-22.6973 -231.222 -63.9102 -316.047c-43.9316 -90.4219 -104.412 -140.22 -170.298 -140.22z" />
    <glyph glyph-name="asterisk" unicode="*" horiz-adv-x="505" 
d="M453.344 597.776v-48.167h-152.304l118.608 -157.056l-38.4375 -29.0283l-128.539 170.205l-128.539 -170.205l-38.4365 29.0283l118.608 157.056h-152.305v48.167h152.306l-118.609 157.057l38.4365 29.0283l128.539 -170.206l128.539 170.205l38.4375 -29.0273
l-118.609 -157.057h152.305z" />
    <glyph glyph-name="plus" unicode="+" horiz-adv-x="599" 
d="M546 321.159v-50h-221v-269.838h-50v269.838h-221v50h221v269.841h50v-269.841h221z" />
    <glyph glyph-name="comma" unicode="," horiz-adv-x="216" 
d="M117.766 -147.279l-17.4736 46.8486l-0.291992 -0.114258c1.80273 0.728516 44.1504 18.5127 44.1494 80.4785v85.1182h50v-85.1182c0 -50.2979 -20.0986 -81.9502 -36.96 -99.6484c-18.4668 -19.3857 -37.334 -26.7861 -39.4238 -27.5645z" />
    <glyph glyph-name="hyphen" unicode="-" horiz-adv-x="406" 
d="M66 271.16v50h274.84v-50h-274.84z" />
    <glyph glyph-name="period" unicode="." horiz-adv-x="212" 
d="M146.83 99.6611c27.3164 0 46.0488 -20.293 46.0488 -49.1709c0 -28.0977 -17.9512 -49.1699 -46.8291 -49.1699c-27.3184 0 -46.0498 21.0723 -46.0498 49.1699c0 28.8779 19.5127 49.1709 46.8301 49.1709z" />
    <glyph glyph-name="slash" unicode="/" horiz-adv-x="533" 
d="M152.818 0.0195312h-52.4131l259.746 783.98h52.8486z" />
    <glyph glyph-name="zero" unicode="0" horiz-adv-x="602" 
d="M302.685 0.0078125c-58.8242 0 -111.688 21.458 -152.874 62.0518c-36.4531 35.9297 -62.0439 84.6172 -74.0059 140.802c-21.0742 99 -21.0742 279.317 0 378.315c11.9609 56.1855 37.5527 104.875 74.0059 140.802c41.1885 40.5947 94.0508 62.0518 152.875 62.0518
s111.688 -21.458 152.875 -62.0518c36.4531 -35.9277 62.043 -84.6162 74.0039 -140.802c21.0752 -98.999 21.0752 -279.316 0.000976562 -378.315c-11.9619 -56.1855 -37.5527 -104.873 -74.0049 -140.803c-41.1885 -40.5928 -94.0518 -62.0508 -152.876 -62.0508z
M302.685 734.316c-105.763 0 -161.427 -84.4551 -178.253 -163.49c-19.5654 -91.9102 -19.5654 -265.704 0 -357.612c16.8262 -79.0361 72.4902 -163.49 178.253 -163.49c105.764 0 161.428 84.4541 178.254 163.491c19.5664 91.9072 19.5664 265.701 0 357.61
c-16.8262 79.0371 -72.4912 163.491 -178.254 163.491z" />
    <glyph glyph-name="one" unicode="1" horiz-adv-x="344" 
d="M269.717 0.0195312l-50 -0.00195312v686.804c-9.69824 -11.918 -18.458 -21.5537 -23.666 -27.1045c-20.3535 -21.6953 -41.3447 -40.4238 -60.7021 -54.1621c-24.8027 -17.6035 -45.5234 -26.1602 -63.3486 -26.1602h-26v50h26
c10.4561 0 43.4785 17.5205 87.5869 64.5322c17.4961 18.6494 33.2529 38.5078 44.3701 55.918c12.4658 19.5244 15.7598 30.8809 15.7598 34.1572h50v-783.982z" />
    <glyph glyph-name="two" unicode="2" horiz-adv-x="525" 
d="M466.923 -0.0107422l-412.921 0.00195312v24.8438c0 93.3105 23.8096 170.198 72.791 235.062c42.4229 56.1807 96.1084 94.4375 148.028 131.437c81.6514 58.1846 146.171 104.161 146.358 200.153c-0.131836 2.87891 -2.15527 38.7705 -21.6406 73.4297
c-25.7842 45.8711 -70.3232 69.1299 -132.379 69.1299c-47.3516 0 -89.0703 -13.3555 -123.999 -39.6934c-26.4609 -19.9531 -39.0449 -40.3545 -39.1689 -40.5596l0.0673828 0.115234l-42.7227 25.3643c1.64941 2.78027 17.0684 27.8906 49.793 53.1377
c30.3457 23.4121 82.0498 51.3213 156.032 51.3213c102.45 0 152.672 -52.4209 176.764 -96.3955c25.4746 -46.5039 26.8867 -92.8691 26.9355 -94.8193l0.00683594 -0.606445c0 -55.2441 -17.498 -102.812 -53.4932 -145.421
c-30.958 -36.6455 -71.1572 -65.293 -113.721 -95.623c-93.75 -66.8057 -190.543 -135.771 -199.32 -301.188h362.59v-49.6904h-0.000976562z" />
    <glyph glyph-name="three" unicode="3" horiz-adv-x="557" 
d="M281.456 6.44922c-80.8291 0 -137.297 30.4756 -170.435 56.041c-36.3115 28.0176 -53.5449 56.6611 -54.2607 57.8672l42.9941 25.5254l-0.0625 0.103516c0.138672 -0.227539 14.1279 -22.959 43.5752 -45.21c38.9277 -29.415 85.4209 -44.3301 138.188 -44.3301
c109.905 0 175.581 85.2168 175.581 167.604c0 43.1982 -18.5068 82.582 -52.1104 110.896c-41.1943 34.709 -100.024 53.0537 -195.524 53.0537l0.161133 50c71.1777 0 128.482 16.583 165.72 47.9561c30.2041 25.4453 46.8369 60.8359 46.8369 99.6484
c0 74.1992 -59.1885 150.947 -158.234 150.947c-114.921 0 -163.647 -79.834 -164.127 -80.6406l-12.7627 -21.4971l-42.9951 25.5264l12.7617 21.498c1.66113 2.7959 17.1777 28.0625 50.1074 53.4688c30.5381 23.5625 82.5654 51.6465 157.015 51.6465
c58.8096 0 112.659 -22.2842 151.629 -62.7471c35.9736 -37.3506 56.6035 -87.7227 56.6035 -138.198c0 -53.8105 -22.9482 -102.779 -64.6211 -137.889c-14.2305 -11.9893 -30.5127 -22.2764 -48.6494 -30.7549c30.168 -10.6885 56.4639 -25.3867 78.293 -43.7773
c45.0742 -37.9746 69.8965 -90.9375 69.8965 -149.133c0 -54.6484 -22.3438 -109.19 -61.3018 -149.644c-42.208 -43.8242 -100.55 -67.9609 -164.277 -67.9609z" />
    <glyph glyph-name="four" unicode="4" horiz-adv-x="589" 
d="M540.827 336.632l0.000976562 -49.999h-91.1777v-286.613h-50v286.612h-348.334l-0.316406 50l349.573 447.368h49.0771v-447.368h91.1768zM114.455 336.632l285.195 0.000976562v364.979z" />
    <glyph glyph-name="five" unicode="5" horiz-adv-x="556" 
d="M436.209 419.814c43.6523 -46.4395 67.6943 -108.075 67.6934 -173.554c0 -65.4834 -24.041 -127.118 -67.6924 -173.558c-44.0527 -46.8613 -102.741 -72.6719 -165.257 -72.6719c-92.4512 0 -176.209 57.8145 -213.383 147.29l-9.56934 23.0352l46.0713 19.1367
l9.56934 -23.0352c29.4131 -70.7959 95.0869 -116.541 167.312 -116.541c100.942 0 183.063 88.0762 183.063 196.341c0 108.262 -82.123 196.339 -183.063 196.339c-49.2051 0 -95.3867 -20.6562 -130.038 -58.1621l-16.9277 -18.3213l-50.0557 2.01953l16.9463 415.791
h367.171v-49.8867h-319.276l-11.9951 -294.344c15.8809 13.2539 33.2852 24.2402 52.0215 32.7754c29.1562 13.2832 60.1611 20.0166 92.1523 20.0166c62.5156 0 121.204 -25.8076 165.257 -72.6709z" />
    <glyph glyph-name="six" unicode="6" horiz-adv-x="591" 
d="M468.315 419.72c42.8984 -46.5957 66.5215 -108.408 66.5215 -174.053s-23.624 -127.456 -66.5225 -174.053c-43.4219 -47.165 -101.316 -73.1406 -163.02 -73.1406s-119.599 25.9756 -163.021 73.1406c-42.8984 46.5967 -68.6982 101.773 -68.6982 256.726
c0 142.261 -11.8926 303.271 72.3467 390.877c39.8496 41.4443 96.5928 62.457 168.651 62.457c36.5117 0 72.8535 -9.46191 105.096 -27.3633c30.958 -17.1885 58.3359 -42.2178 79.1738 -72.3809l14.0928 -20.4004l-40.7988 -28.1865l-14.0947 20.4004
c-34.3936 49.7861 -86.6865 78.3398 -143.469 78.3398c-58.8672 0 -102.342 -15.4521 -132.906 -47.2383c-58.7607 -61.1104 -63.7266 -177.469 -60.7275 -291.816c6.46777 9.34668 13.5811 18.2705 21.333 26.6914c43.4219 47.165 101.318 73.1396 163.021 73.1396
s119.599 -25.9746 163.021 -73.1396zM305.295 48.0635c99.2256 0 179.953 88.6445 179.952 197.604c0 108.959 -80.7266 197.604 -179.952 197.604c-99.2266 0 -179.954 -88.6445 -179.954 -197.604s80.7275 -197.604 179.954 -197.604z" />
    <glyph glyph-name="seven" unicode="7" horiz-adv-x="607" 
d="M186.685 0.0195312h-49.626c0 64.4854 20.418 145.693 60.6875 241.366c31.6426 75.1748 75.666 159.81 130.847 251.554c61.9912 103.065 124.574 192.438 160.063 241.423h-434.656v49.627h497.5l-0.0888672 -48.0449s-88.3301 -115.627 -180.54 -268.991
c-120.495 -200.418 -184.187 -361.88 -184.187 -466.934z" />
    <glyph glyph-name="eight" unicode="8" horiz-adv-x="568" 
d="M448.409 376.855c44.0039 -41.6846 68.2373 -97.2129 68.2354 -156.354c0 -59.1406 -24.2344 -114.669 -68.2383 -156.354c-43.6318 -41.332 -101.551 -64.0967 -163.086 -64.0967c-61.5332 0 -119.452 22.7646 -163.085 64.0967
c-44.0039 41.6846 -68.2373 97.2119 -68.2373 156.354c0 59.1406 24.2344 114.668 68.2354 156.352c17.3525 16.4365 36.9688 29.9258 58.167 40.2256c-15.626 8.36621 -30.1982 18.6426 -43.3477 30.7188c-40.4941 37.1836 -62.7949 86.7939 -62.7949 139.69
s22.2998 102.506 62.7949 139.691c39.9023 36.6396 92.8105 56.8203 148.979 56.8203c56.1689 0 109.078 -20.1797 148.979 -56.8203c40.4932 -37.1846 62.7949 -86.7949 62.7949 -139.691c0 -52.8936 -22.3008 -102.504 -62.7939 -139.689
c-13.3408 -12.251 -28.1426 -22.6514 -44.0283 -31.084c20.9141 -10.2529 40.2783 -23.6143 57.4258 -39.8594zM124.235 587.489c0 -80.8018 72.583 -146.539 161.799 -146.538c89.2168 0 161.799 65.7373 161.799 146.538c0 80.8018 -72.582 146.538 -161.799 146.538
c-89.2158 0 -161.799 -65.7363 -161.799 -146.538zM285.322 50.0244c99.9971 0 181.349 76.4746 181.349 170.478c0 94 -81.3525 170.476 -181.35 170.476s-181.351 -76.4756 -181.351 -170.476c0 -94.001 81.3555 -170.478 181.352 -170.478z" />
    <glyph glyph-name="nine" unicode="9" horiz-adv-x="591" 
d="M122.523 360.425c-42.8984 46.5957 -66.5225 108.411 -66.5225 174.055s23.625 127.456 66.5244 174.053c43.4219 47.165 101.316 73.1396 163.02 73.1396s119.599 -25.9746 163.021 -73.1396c42.8984 -46.5967 68.6982 -101.773 68.6982 -256.726
c0 -142.261 11.8906 -303.271 -72.3486 -390.877c-39.8496 -41.4424 -96.5928 -62.457 -168.651 -62.457c-36.5117 0 -72.8535 9.46289 -105.096 27.3633c-30.958 17.1895 -58.3359 42.2168 -79.1738 72.3809l-14.0928 20.3994l40.7988 28.1865l14.0947 -20.3994
c34.3936 -49.7861 86.6865 -78.3408 143.469 -78.3408c58.8672 0 102.342 15.4512 132.906 47.2373c58.7607 61.1104 63.7266 177.469 60.7275 291.816c-6.46777 -9.34668 -13.5811 -18.2705 -21.333 -26.6914c-43.4219 -47.1641 -101.318 -73.1387 -163.021 -73.1387
s-119.598 25.9736 -163.02 73.1387zM285.543 732.083c-99.2246 0 -179.952 -88.6445 -179.952 -197.604c0 -108.96 80.7266 -197.604 179.952 -197.604c99.2266 0 179.954 88.6455 179.954 197.605c0 108.959 -80.7275 197.603 -179.954 197.603z" />
    <glyph glyph-name="colon" unicode=":" horiz-adv-x="215" 
d="M146.83 99.6611c27.3164 0 46.0488 -20.293 46.0488 -49.1709c0 -28.0977 -17.9512 -49.1699 -46.8291 -49.1699c-27.3184 0 -46.0498 21.0723 -46.0498 49.1699c0 28.8779 19.5127 49.1709 46.8301 49.1709zM146.049 392.51
c-27.3174 0 -46.0498 21.0732 -46.0498 49.1699c0 28.8779 19.5127 49.1709 46.8301 49.1709c27.3164 0 46.0488 -20.293 46.0488 -49.1709c0 -28.0967 -17.9512 -49.1699 -46.8291 -49.1699z" />
    <glyph glyph-name="semicolon" unicode=";" horiz-adv-x="228" 
d="M169.541 490.851c27.3154 0 46.0488 -20.293 46.0488 -49.1709c0 -28.0967 -17.9512 -49.1699 -46.8291 -49.1699c-27.3184 0 -46.0498 21.0732 -46.0498 49.1699c0 28.8779 19.5127 49.1709 46.8301 49.1709zM144.15 -20.0684v85.1191h50v-85.1191
c0 -50.2969 -20.0986 -81.9502 -36.96 -99.6484c-18.4668 -19.3857 -37.334 -26.7861 -39.4238 -27.5635l-17.4736 46.8477l-0.291992 -0.114258c1.80273 0.728516 44.1504 18.5127 44.1494 80.4785z" />
    <glyph glyph-name="less" unicode="&#x3c;" horiz-adv-x="613" 
d="M535.715 0.103516l-484.715 290.83v29.7939l484.715 290.831l25.0371 -41.7285l-439.995 -264.001l439.995 -263.999z" />
    <glyph glyph-name="equal" unicode="=" horiz-adv-x="620" 
d="M66 390.5v50h492v-50h-492zM66 159.5v50h492v-50h-492z" />
    <glyph glyph-name="greater" unicode="&#x3e;" horiz-adv-x="614" 
d="M78.0371 0.103516l-25.0371 41.7266l439.995 263.999l-439.995 264.001l25.0371 41.7285l484.714 -290.831v-29.7939z" />
    <glyph glyph-name="question" unicode="?" horiz-adv-x="513" 
d="M399.722 95.6943c26.5674 0 44.7852 -19.7383 44.7852 -47.8232c0 -27.3252 -17.458 -47.8203 -45.5439 -47.8203c-26.5674 0 -44.7861 20.4951 -44.7861 47.8203c0 28.0859 18.9766 47.8232 45.5449 47.8232zM567.061 729.499
c34.1133 -32.0742 52.1445 -78.1582 52.1475 -133.271c0 -65.7314 -14.7383 -115.654 -45.0566 -152.615c-26.585 -32.4102 -60.1064 -49.1152 -89.6816 -63.8545c-45.376 -22.6123 -67.1875 -35.3701 -67.1875 -77.9043v-24.3154h-48.6289v24.3154
c0 74.5215 50.0059 99.4424 94.125 121.429c55.4355 27.627 107.798 53.7217 107.798 172.945c0 92.3047 -58.9414 139.108 -175.188 139.108c-54.9297 0 -106.525 -29.0986 -141.556 -79.833l-13.8164 -20.0078l-40.0156 27.6299l13.8154 20.0078
c44.2461 64.0801 110.427 100.831 181.573 100.831c75.4766 0 133.234 -18.3242 171.672 -54.4648z" />
    <glyph glyph-name="at" unicode="@" horiz-adv-x="973" 
d="M885.926 492.659c22.1865 -60.748 33.4375 -125.238 33.4395 -191.673c0 -41.4229 -12.6533 -114.878 -40.4326 -178.268c-15.5361 -35.4492 -33.9746 -63.8555 -54.8066 -84.4316c-26.4492 -26.1211 -56.2715 -39.3662 -88.6426 -39.3662
c-39.8896 0 -62.0254 16.8428 -73.5684 30.9736c-15.1807 18.5781 -20.0801 41.3438 -21.0908 59.9268c-19.9492 -20.4268 -42.4824 -36.876 -67.1885 -48.9785c-30.7568 -15.0645 -63.4629 -22.7041 -97.207 -22.7041c-33.7432 0 -66.4492 7.63965 -97.2061 22.7041
c-29.417 14.4092 -55.7676 34.959 -78.3232 61.0801c-45.752 52.9824 -70.9473 123.196 -70.9473 197.703s25.1953 144.719 70.9473 197.702c22.5547 26.1211 48.9062 46.6709 78.3232 61.0801c30.7568 15.0654 63.4629 22.7051 97.2061 22.7051
c33.7441 0 66.4502 -7.64062 97.207 -22.7051c29.417 -14.4102 55.7676 -34.959 78.3242 -61.0801c21.1016 -24.4385 37.8184 -52.5459 49.7207 -83.0449l32.9219 162.735l49.0078 -9.91406l-91.585 -452.699c-1.85449 -9.60156 -3.88965 -37.7217 8.69336 -52.9824
c6.93652 -8.41211 18.3086 -12.502 34.7646 -12.502c19.0117 0 36.5137 8.15723 53.5059 24.9395c16.3076 16.1104 31.1621 39.2998 44.1465 68.9268c23.7852 54.2715 36.2275 120.664 36.2275 158.198c0 245.585 -170.998 445.384 -381.184 445.384
c-210.184 0 -381.18 -199.798 -381.18 -445.383s170.996 -445.383 381.18 -445.385c45.625 0 90.2432 9.32812 132.614 27.7246c25.8379 11.2188 50.7139 25.8037 73.9434 43.3506l19.9473 15.0674l30.1387 -39.8965l-19.9473 -15.0684
c-26.3857 -19.9297 -54.7041 -36.5225 -84.1689 -49.3145c-48.6934 -21.1396 -100.011 -31.8594 -152.527 -31.8594c-58.6777 0 -115.572 13.2939 -169.1 39.5137c-51.4111 25.1826 -97.5166 61.1543 -137.034 106.918c-39.2881 45.498 -70.1094 98.4141 -91.6104 157.279
c-22.1865 60.748 -33.4365 125.236 -33.4365 191.672s11.25 130.923 33.4365 191.671c21.501 58.8643 52.3223 111.78 91.6104 157.279c39.5156 45.7637 85.623 81.7344 137.034 106.917c53.5283 26.2207 110.422 39.5146 169.1 39.5146
c58.6787 0 115.572 -13.2939 169.103 -39.5146c51.4111 -25.1816 97.5166 -61.1533 137.034 -106.917c39.2891 -45.499 70.1113 -98.415 91.6094 -157.279zM476.43 68.1377c108.34 0 196.479 103.846 196.479 231.487c0 127.641 -88.1387 231.484 -196.479 231.484
c-108.339 0 -196.479 -103.843 -196.479 -231.484s88.1396 -231.487 196.479 -231.487z" />
    <glyph glyph-name="A" unicode="A" horiz-adv-x="683" 
d="M95.7422 0.0703125l-51.9219 -0.0507812l273.641 783.801l46.2246 -0.0078125l273.313 -783.793l-51.8994 0.0595703l-105.267 301.911c-17.8086 -8.78418 -41.7314 -13.2256 -71.4121 -13.2256h-148.216c-58.998 0 -77.0918 -39.208 -78.7002 -42.9951zM340.559 701.44
l-129.538 -371.106c13.9463 4.55859 30.2373 7.38867 49.1826 7.38867h148.216c36.623 0 50.5742 7.87305 54.9795 11.4004z" />
    <glyph glyph-name="B" unicode="B" horiz-adv-x="678" 
d="M552.503 374.259c41.3887 -41.3877 64.1816 -96.4141 64.1807 -154.944c0 -58.5322 -22.793 -113.559 -64.1807 -154.947c-41.3691 -41.3691 -96.3721 -64.1611 -154.875 -64.1816l-323.628 -0.185547v784.002h323.559c108.985 0 197.651 -88.666 197.651 -197.651
c0 -73.0918 -39.877 -137.043 -99.0205 -171.24c20.5566 -10.3818 39.5557 -24.0938 56.3135 -40.8516zM397.558 733.927l-273.482 -0.000976562v-265.509c0.381836 -4.72363 1.90918 -13.0439 7.7207 -19.2041c6.53613 -6.92578 17.8467 -10.4395 33.6211 -10.4395h232.141
c81.373 0 147.576 66.2031 147.576 147.577c0 81.373 -66.2021 147.576 -147.576 147.576zM397.559 50.2617c93.2139 0 169.051 75.8369 169.051 169.052s-75.8369 169.05 -169.052 169.05l-232.15 0.333984c-15.5605 0 -29.3604 2.36035 -41.3301 7.02344v-345.646h227.641
z" />
    <glyph glyph-name="C" unicode="C" horiz-adv-x="698" 
d="M378.712 0.0498047c-43.7725 0 -86.1748 10.6865 -126.027 31.75c-38.0225 20.0977 -72.0693 48.7402 -101.195 85.1387c-59 73.7246 -91.4912 171.424 -91.4912 275.095s32.4912 201.369 91.4902 275.096c29.126 36.3965 63.1729 65.0439 101.195 85.1406
c39.8545 21.0635 82.2549 31.7432 126.027 31.7432c50.4658 0 100.693 -14.8213 145.253 -42.8633c42.457 -26.7139 80.1475 -65.6133 109 -112.49l13.2227 -21.4824l-42.9619 -26.4424l-13.2227 21.4795c-51.3779 83.4717 -128.391 131.348 -211.291 131.348
c-147.922 0 -268.266 -153.21 -268.266 -341.532s120.344 -341.532 268.266 -341.532c82.9004 0 159.914 47.874 211.292 131.353l13.2217 21.4795l42.9629 -26.4434l-13.2227 -21.4805c-28.8535 -46.876 -66.543 -85.7754 -109 -112.493
c-44.5586 -28.04 -94.7871 -42.8623 -145.253 -42.8623z" />
    <glyph glyph-name="D" unicode="D" horiz-adv-x="683" 
d="M304.53 0.00976562h-0.133789l-230.397 1.22754v782.771h230.53c43.3721 0 85.3818 -10.6445 124.865 -31.6357c37.6553 -20.0215 71.3721 -48.5557 100.211 -84.8086c58.4004 -73.4121 90.5635 -170.688 90.5635 -273.906
c0 -52.0449 -8.11816 -102.729 -24.1299 -150.649c-15.5654 -46.5889 -37.8867 -88.5742 -66.3418 -124.788c-28.8535 -36.7246 -62.5508 -65.6494 -100.15 -85.9785c-39.5674 -21.3867 -81.6279 -32.2324 -125.017 -32.2324zM123.961 50.9336l180.641 -0.962891
c69.6211 0.0244141 135.61 35.2246 185.812 99.1152c51.4561 65.4883 79.7939 152.347 79.7939 244.572c0 187.69 -119.183 340.39 -265.678 340.39h-180.569v-683.114z" />
    <glyph glyph-name="E" unicode="E" horiz-adv-x="606" 
d="M540.802 0.0263672h-466.803v783.975l466.755 0.00976562l0.0263672 -49.9746l-416.806 0.0166016v-302.899c11.9766 4.68652 25.791 7.06152 41.3799 7.06152h375.413v-49.9766h-375.412c-15.9346 0 -27.3037 -3.5918 -33.793 -10.6768
c-6.50781 -7.10938 -7.46484 -17.1357 -7.58691 -20.8115v-306.682l416.758 -0.0683594z" />
    <glyph glyph-name="F" unicode="F" horiz-adv-x="616" 
d="M158.025 437.906l331.119 0.000976562v-50.0156h-323.715c-15.7549 0 -27.0527 -3.50879 -33.5801 -10.4277c-8.5166 -9.03027 -7.82324 -22.7178 -7.81445 -22.8545c-0.0078125 0.115234 -0.0146484 0.200195 -0.0195312 0.257812v-354.848h-50.0146v783.967h492.14
l0.0136719 -50.0146l-442.139 0.0136719v-303.144c10.0498 3.93066 21.4072 6.21777 34.0098 6.85645v0.208008z" />
    <glyph glyph-name="G" unicode="G" horiz-adv-x="751" 
d="M377.849 0.103516c-43.6611 0 -85.9541 10.6846 -125.704 31.751c-37.9189 20.0986 -71.874 48.7402 -100.918 85.1367c-58.8301 73.7129 -91.2285 171.395 -91.2285 275.048c0 103.652 32.3975 201.333 91.2275 275.049c29.0439 36.3945 62.999 65.0371 100.918 85.1338
c39.75 21.0664 82.042 31.748 125.703 31.748c52.6367 0 104.764 -16.1348 150.745 -46.6631c43.8086 -29.085 81.9971 -71.1406 110.438 -121.618l-43.6826 -24.6113c-50.3643 89.3887 -131.673 142.754 -217.5 142.754
c-147.615 -0.000976562 -267.709 -153.329 -267.709 -341.793c0 -188.466 120.094 -341.794 267.708 -341.794c115.31 0 248.518 134.797 260.128 312.837c0 0 -201.464 -0.296875 -201.668 -0.296875c-27.1816 0 -49.167 -7.81348 -65.3428 -23.2275
c-10.958 -10.4404 -15.2109 -20.6592 -15.2471 -20.7559l-46.9785 17.5205c0.782227 2.09766 8.20117 21.0166 27.6416 39.5342c16.9004 16.1025 46.4941 35.1475 92.8369 36.9307c0.848633 0.0878906 234.609 0.46875 234.609 0.46875h0.0361328
c6.64453 0 13.0146 -2.63477 17.7158 -7.33008c4.70801 -4.70312 7.35449 -11.085 7.35449 -17.7402c0 -50.7227 -8.9209 -100.79 -26.5156 -148.811c-16.5771 -45.2422 -39.9971 -86.543 -69.6104 -122.759c-60.5498 -74.0439 -138.899 -116.512 -214.957 -116.512z" />
    <glyph glyph-name="H" unicode="H" horiz-adv-x="658" 
d="M582.235 0.0195312l-49.999 0.000976562v408.874c-17.6729 -10.9092 -42.0068 -20.0635 -74.3271 -20.8418l-255.119 -0.0527344c-27.1064 0 -49.0293 -7.79199 -65.1611 -23.1621c-7.23047 -6.88867 -11.5342 -13.6816 -13.6279 -17.5166v-347.302h-50v783.98h50
v-366.896c18.4746 11.4072 44.2354 20.8965 78.7881 20.8965h250.657c27.1064 0 49.0293 7.79297 65.1611 23.1621c7.23047 6.8877 11.5342 13.6807 13.6279 17.5156v305.322h50v-783.98z" />
    <glyph glyph-name="I" unicode="I" horiz-adv-x="200" 
d="M74 0.0195312v783.98h50v-783.98h-50z" />
    <glyph glyph-name="J" unicode="J" horiz-adv-x="433" 
d="M48 0.0292969v49.9551c147.07 0 266.724 152.765 266.724 340.537v393.479h49.9561v-393.479c0 -103.271 -32.2793 -200.593 -90.8936 -274.038c-28.9385 -36.2617 -62.7686 -64.7998 -100.548 -84.8223c-39.6025 -20.9893 -81.7383 -31.6318 -125.238 -31.6318z" />
    <glyph glyph-name="K" unicode="K" horiz-adv-x="639" 
d="M175.206 388.13l420.432 -388.11h-74.0781l-378.15 349.523c-3.29297 2.71875 -12.1738 10.6709 -19.4082 22.7666v-372.29h-50v783.98h50.001v-339.579c4.88086 8.02246 11.8467 16.3877 21.6934 24.7061l337.239 314.874h73.4463l-378.074 -352.78
c-6.78906 -5.6709 -14.8691 -14.208 -14.8135 -22.6689c0.0566406 -8.82617 8.5625 -17.8076 11.7129 -20.4219z" />
    <glyph glyph-name="L" unicode="L" horiz-adv-x="620" 
d="M124 50.0098h442v-50l-492 0.00976562v783.98h50v-733.99z" />
    <glyph glyph-name="M" unicode="M" horiz-adv-x="772" 
d="M644.264 784h51.7354v-783.98h-50v642.502l-234.513 -642.502h-53.2227l-234.264 642.504v-642.504h-50v783.98h51.4873l259.513 -710.584z" />
    <glyph glyph-name="N" unicode="N" horiz-adv-x="652" 
d="M526.222 784h50v-783.98h-78.7148l-373.507 685.834v-685.834h-50v783.98h53.3438l398.878 -731.946v731.946z" />
    <glyph glyph-name="O" unicode="O" 
d="M377.836 0.0527344c-43.6592 0 -85.9502 10.6826 -125.699 31.7471c-37.917 20.0986 -71.8701 48.7393 -100.914 85.1318c-58.8252 73.7129 -91.2227 171.389 -91.2227 275.038s32.3965 201.326 91.2227 275.038c29.0439 36.3926 62.9971 65.0352 100.914 85.1299
c39.749 21.0664 82.04 31.748 125.699 31.748c43.6572 0 85.9473 -10.6807 125.695 -31.748c37.917 -20.0957 71.8701 -48.7373 100.914 -85.1299c58.8262 -73.7119 91.2266 -171.389 91.2266 -275.038c0 -103.648 -32.3984 -201.325 -91.2266 -275.039
c-29.0439 -36.3916 -62.9961 -65.0332 -100.914 -85.1318c-39.748 -21.0645 -82.0381 -31.7461 -125.695 -31.7461zM377.836 733.749c-147.609 0 -267.698 -153.321 -267.698 -341.779s120.089 -341.778 267.698 -341.778c147.607 0 267.695 153.32 267.695 341.778
s-120.087 341.779 -267.695 341.779z" />
    <glyph glyph-name="P" unicode="P" horiz-adv-x="647" 
d="M397.646 784c108.82 0 196.776 -89.7139 196.776 -198.536s-88.5332 -197.354 -197.354 -197.354l-231.789 -0.333984c-15.9434 0 -27.3193 -3.59473 -33.8115 -10.6836c-5.55273 -6.06348 -7.06836 -14.252 -7.46875 -18.8145v-358.258h-50v783.98h323.646z
M397.068 438.11c81.25 0 147.354 66.1025 147.354 147.353s-66.1455 148.538 -147.396 148.538l-273.026 -0.254883v-302.984c10.8857 4.24219 23.3018 6.55664 37.1719 6.9375z" />
    <glyph glyph-name="Q" unicode="Q" 
d="M640.024 45.1465l-0.31543 -0.0175781l3.0752 -50.041c-0.424805 -0.0253906 -1.50195 -0.0791016 -3.13672 -0.0791016c-6.97363 0 -24.1104 0.979492 -44.2139 9.27148c-17.418 7.18457 -39.9443 21.1592 -58.7402 48.1641
c-10.6855 -7.59473 -21.751 -14.4414 -33.1836 -20.5029c-39.7451 -21.0645 -82.0342 -31.7471 -125.69 -31.7471s-85.9453 10.6826 -125.692 31.7471c-37.915 20.0957 -71.8672 48.7354 -100.909 85.1289c-58.8223 73.707 -91.2188 171.38 -91.2188 275.024
c0 103.644 32.3965 201.316 91.2197 275.024c29.042 36.3916 62.9932 65.0312 100.911 85.127c39.7471 21.0645 82.0361 31.7461 125.692 31.7461s85.9443 -10.6816 125.69 -31.7461c37.915 -20.0967 71.8672 -48.7354 100.909 -85.127
c58.8242 -73.709 91.2217 -171.38 91.2217 -275.024c0 -103.643 -32.3994 -201.315 -91.2217 -275.023c-9.2041 -11.5322 -18.9033 -22.2803 -29.0596 -32.2275c25.8623 -40.5234 62.9297 -39.7627 64.6621 -39.6973zM377.819 50.3311
c147.601 0 267.685 153.313 267.685 341.764s-120.083 341.763 -267.685 341.763s-267.686 -153.313 -267.686 -341.763c0 -188.451 120.084 -341.764 267.686 -341.764z" />
    <glyph glyph-name="R" unicode="R" horiz-adv-x="661" 
d="M613.45 0.0195312l-54.9609 0.000976562l-153.89 346.445c-23.3174 40.3379 -51.5752 41.3721 -52.2188 41.3721h-0.00878906l-187.093 -0.0625c-15.9434 0 -27.3193 -3.59473 -33.8115 -10.6836c-5.55273 -6.06348 -7.06836 -14.252 -7.46875 -18.8145v-358.258h-50
v783.98h323.068c108.82 0 197.353 -89.7188 197.352 -198.538c0 -96.1064 -69.0557 -176.372 -160.15 -193.821c5.97168 -7.5625 11.8164 -16.4062 17.2705 -26.7646zM123.998 430.763c10.8857 4.24023 23.3027 6.55566 37.1719 6.93359l235.896 0.411133
c81.25 0 147.353 66.1035 147.353 147.354s-65.9893 148.269 -147.239 148.269l-273.181 0.015625v-302.983z" />
    <glyph glyph-name="S" unicode="S" horiz-adv-x="662" 
d="M327.825 0.0341797c-73.7295 0 -128.538 8.91699 -172.497 28.0635c-47.3369 20.6182 -75.6553 51.3154 -95.0381 75.7559l-15.2881 19.2793l39.8477 29.5908l15.29 -19.2803c35.4443 -44.6904 79.5283 -84.8086 227.688 -84.8086
c137.24 0 222.496 65.5986 222.496 171.192c0 96.6592 -84.7422 124.474 -224.308 158.792c-62.1211 15.2754 -126.354 31.0703 -175.64 59.8975c-28.2783 16.54 -49.2256 35.7598 -64.0361 58.7568c-16.5488 25.6992 -24.9404 56.0889 -24.9404 90.3242
c0 58.1719 21.6826 106.668 62.7002 140.248c45.5195 37.2617 114.062 56.1553 203.725 56.1553c84.1182 0 162.609 -38.1396 215.347 -104.635l15.291 -19.2793l-39.8486 -29.5879l-15.291 19.2773c-43.1543 54.415 -107.121 85.623 -175.498 85.623
c-77.4561 0 -135.083 -15.0244 -171.282 -44.6572c-29.8027 -24.3965 -44.915 -59.1006 -44.915 -103.145c0 -98.9727 85.667 -127.18 226.757 -161.873c61.6045 -15.1475 125.307 -30.8125 174.06 -59.1836c27.9951 -16.29 48.7314 -35.207 63.3955 -57.8291
c16.3975 -25.2988 24.7139 -55.2041 24.7139 -88.8838c0 -30.4482 -5.85059 -59.2031 -17.3857 -85.4707c-11.9414 -27.1816 -29.6777 -51.0059 -52.71 -70.8125c-48.3232 -41.5488 -118.393 -63.5107 -202.633 -63.5107z" />
    <glyph glyph-name="T" unicode="T" horiz-adv-x="676" 
d="M626.972 783.746l0.000976562 -50h-272.242v-733.727h-50v733.727h-256.73v50h578.972z" />
    <glyph glyph-name="U" unicode="U" horiz-adv-x="636" 
d="M317.021 0.580078c-65.9814 0 -128.013 25.6943 -174.669 72.3516c-46.6553 46.6582 -72.3496 108.688 -72.3496 174.671v536.398h50v-536.398c0 -108.638 88.3828 -197.021 197.021 -197.021c108.639 0 197.021 88.3838 197.021 197.021v536.398h50v-536.398
c0 -65.9814 -25.6953 -128.015 -72.3535 -174.671c-46.6582 -46.6553 -108.688 -72.3516 -174.67 -72.3516z" />
    <glyph glyph-name="V" unicode="V" horiz-adv-x="689" 
d="M317.656 0.0195312l-273.656 783.98h52.9609l247.285 -708.084l246.76 708.084h52.9502l-273.346 -783.98h-52.9541z" />
    <glyph glyph-name="W" unicode="W" horiz-adv-x="1049" 
d="M953.266 783.962l50.6133 0.0380859l-274.264 -783.982l-45.04 0.00195312l-160.759 590.655l-160.505 -590.655l-45.1172 -0.0107422l-274.195 783.991l50.2451 -0.0332031l243.6 -695.742l169.171 622.533l33.5693 0.00390625l169.354 -622.527z" />
    <glyph glyph-name="X" unicode="X" horiz-adv-x="737" 
d="M688.748 784l-291.103 -391.916l291.234 -392.065l-60.2617 0.139648l-260.962 351.529l-260.965 -351.528l-59.5615 -0.139648l290.535 392.065l-290.665 391.915l59.6914 0.0107422l260.965 -351.527l260.962 351.527z" />
    <glyph glyph-name="Y" unicode="Y" horiz-adv-x="742" 
d="M697.75 784l-287.02 -386.668c-4.61719 -11.957 -15.3926 -44.4775 -15.3926 -87.5449v-309.771h-49.0693v309.771c0 43.0303 -10.7559 75.5312 -15.3975 87.5566l-286.871 386.656l60.9189 0.0273438l265.886 -358.156l265.883 358.155z" />
    <glyph glyph-name="Z" unicode="Z" horiz-adv-x="719" 
d="M669.846 743.296l-549.231 -693.061h529.552v-50.2178h-601.166v40.7041l549.23 693.062h-529.552v50.2168h601.251z" />
    <glyph glyph-name="bracketleft" unicode="[" horiz-adv-x="242" 
d="M195.975 -138.003h-120.975v922.003h120.975v-49.9873h-70.9893v-822.028h70.9893v-49.9873z" />
    <glyph glyph-name="backslash" unicode="\" horiz-adv-x="404" 
d="M306.182 0.0195312l-260.182 783.98h52.8486l259.746 -783.98h-52.4131z" />
    <glyph glyph-name="bracketright" unicode="]" horiz-adv-x="244" 
d="M48 -138.003v49.9873h70.9883v822.028h-70.9883v49.9873h120.975v-922.003h-120.975z" />
    <glyph glyph-name="asciicircum" unicode="^" horiz-adv-x="480" 
d="M84.5645 609.051l-28.5645 41.0371l192.385 133.912l175.721 -134.583l-30.4033 -39.6953l-146.727 112.378z" />
    <glyph glyph-name="underscore" unicode="_" horiz-adv-x="612" 
d="M60 0.0195312v50h492v-50h-492z" />
    <glyph glyph-name="grave" unicode="`" horiz-adv-x="216" 
d="M99.7676 613.811v23.6709c0.000976562 69.873 -34.3076 109.716 -35.7676 111.378l0.107422 -0.121094l37.1182 33.501c1.98145 -2.19531 48.542 -54.8154 48.541 -144.759v-23.6699h-49.999z" />
    <glyph glyph-name="a" unicode="a" horiz-adv-x="534" 
d="M258.736 -0.0429688c-54.1641 0 -105.321 16.9424 -144.049 47.7041c-40.4258 32.1094 -62.6885 75.3184 -62.6885 121.665c0 46.3516 22.2627 89.5596 62.6885 121.668c38.7275 30.7607 89.8848 47.7012 144.048 47.7012l121.353 0.0878906
s15.7432 -0.774414 24.8037 7.77051c6.41504 6.05176 9.9082 16.1904 10.4014 30.1689v32.8779c0 65.7207 -66.3379 119.188 -147.879 119.188c-52.3057 0 -99.7275 -21.709 -126.854 -58.0713l-15.002 -20.1104l-40.2197 30.0039l15.002 20.1104
c36.5508 48.9951 99.0078 78.2461 167.073 78.2461c52.0625 0 101.206 -17.0762 138.377 -48.0811c38.4844 -32.1006 59.6807 -75.1758 59.6807 -121.287v-240.274c0 -46.3486 -22.2627 -89.5576 -62.6875 -121.665c-38.7256 -30.7617 -89.8838 -47.7031 -144.048 -47.7031z
M379.321 288.607l-120.566 -0.0869141c-42.8965 0 -82.9697 -13.0742 -112.858 -36.8154c-28.1914 -22.3916 -43.7188 -51.6455 -43.7188 -82.374c0 -30.7266 15.5264 -59.9795 43.7188 -82.373c29.8896 -23.7383 69.9629 -36.8135 112.839 -36.8135
s82.9512 13.0752 112.839 36.8135c28.1924 22.3936 43.7197 51.6465 43.7197 82.373v125.434c-16.2158 -6.52344 -31.0244 -6.4209 -35.9727 -6.15723z" />
    <glyph glyph-name="b" unicode="b" horiz-adv-x="553" 
d="M206.092 0.0195312l-132.093 -0.000976562v783.98h50.0361v-182.251s-0.68457 -13.5742 7.83887 -22.6084c6.52832 -6.92188 17.832 -10.4316 33.5928 -10.4316l40.5537 0.115234c76.0391 0 147.458 -29.583 201.175 -83.2988s83.2988 -125.136 83.2988 -201.103
c0 -75.9678 -29.583 -147.388 -83.2988 -201.104c-53.7168 -53.7148 -125.137 -83.2988 -201.104 -83.2988zM124.035 50.0537l82.0576 -0.000976562c129.229 0 234.366 105.138 234.366 234.369c0 129.229 -105.137 234.365 -234.367 234.365l-40.5537 -0.116211
c-15.6445 0 -29.5039 2.3623 -41.5029 7.05371v-475.671z" />
    <glyph glyph-name="c" unicode="c" horiz-adv-x="534" 
d="M299.661 -0.113281c-33.6855 0 -65.2529 8.00195 -95.4375 23.5273c-28.9131 14.873 -54.791 36.0576 -76.916 62.9639c-44.6924 54.3525 -69.3066 128.696 -69.3066 202.659c0 73.9639 24.6143 149.088 69.3076 203.441c22.125 26.9072 48.0029 48.0898 76.916 62.9619
c30.1855 15.5264 64.1221 23.5273 95.4375 23.5273c72.8145 0 130.155 -29.2783 166.479 -77.9678l14.9492 -20.0391l-40.0771 -29.8975l-14.9492 20.0391c-26.9785 36.167 -74.1113 57.7861 -126.117 57.8643c-105.868 -0.169922 -191.946 -104.894 -191.946 -239.931
c0 -135.036 86.0781 -238.979 191.945 -239.149c52.0059 0.0791016 99.1377 21.6973 126.117 57.8652l14.9492 20.0371l40.0771 -29.8965l-14.9492 -20.0371c-36.3232 -48.6924 -96.1641 -77.9688 -166.479 -77.9688z" />
    <glyph glyph-name="d" unicode="d" horiz-adv-x="548" 
d="M139.299 83.3203c-53.7168 53.7148 -83.2998 125.136 -83.2998 201.104c0 75.9668 29.583 147.386 83.2988 201.103c53.7158 53.7178 125.136 83.2988 201.175 83.2988l40.5537 -0.115234c15.7607 0 27.0635 3.50977 33.5928 10.4316
c8.52246 9.03418 7.83984 22.6084 7.83984 22.6084v182.25h50.0352v-783.98h-132.093c-75.9668 0 -147.387 29.584 -201.103 83.3008zM422.456 525.727c-11.998 -4.68945 -25.8584 -7.05176 -41.5029 -7.05176l-40.5537 0.116211
c-129.229 0 -234.365 -105.137 -234.365 -234.366c0 -129.231 105.137 -234.369 234.365 -234.369h82.0566v475.671z" />
    <glyph glyph-name="e" unicode="e" horiz-adv-x="544" 
d="M300.476 0.0234375c-66.1953 0 -127.85 30.7656 -173.599 86.626c-31.1162 37.9912 -52.4385 84.7207 -62.4199 135.623c0 0 -6.46191 25.5264 -6.46191 67.2246c0 76.4199 24.6406 148.475 69.3857 202.889c22.1494 26.9365 48.0576 48.1436 77.002 63.0322
c30.1299 15.499 62.1729 23.5508 95.2529 23.5508c57.1143 0 100.428 -14.4688 133.287 -41.4746c31.3613 -25.7734 48.6348 -60.916 48.6348 -98.9502c0 -39.7471 -19.748 -78.0703 -54.1748 -105.146c-37.1484 -29.2109 -89.3457 -44.6523 -150.945 -44.6523h-136.757
c-1.07715 0 -12.0303 -0.0410156 -18.2979 -5.95703c-15.2432 -14.3848 -10.2939 -35.7842 -10.2939 -35.7842c16.1611 -111.817 94.9355 -196.926 189.387 -196.926c60.6133 0 107.598 20.0322 135.87 57.9316l14.9648 20.0596l40.1221 -29.9326l-14.9658 -20.0615
c-26.5654 -35.6074 -78.6611 -78.0527 -175.991 -78.0527zM300.231 528.914c-93.7119 -0.139648 -171.938 -84.0557 -188.811 -194.674c13.1152 4.7959 29.0498 4.5625 29.0498 4.5625h135.965c50.2686 0 91.7637 11.7373 120.004 33.9434
c22.6094 17.7793 35.0625 41.1465 35.0625 65.7979c-0.000976562 43.4766 -41.0771 90.2666 -131.271 90.3701z" />
    <glyph glyph-name="f" unicode="f" horiz-adv-x="351" 
d="M276.852 783.999h24.9834v-49.9629h-24.9824c-83.502 0 -151.873 -72.1289 -155.71 -162.37c11.9307 4.6377 25.6855 6.98438 41.1943 6.98438l114.609 -0.00585938v-49.9639l-114.636 0.00683594c-15.9062 0 -27.2734 -3.59277 -33.7607 -10.6768
c-6.51074 -7.11133 -7.46582 -17.1426 -7.58594 -20.8115v-497.181h-49.9639v563.642c0 58.4941 21.1748 113.579 59.626 155.109c38.9434 42.0645 90.874 65.2295 146.226 65.2295z" />
    <glyph glyph-name="g" unicode="g" horiz-adv-x="548" 
d="M342.199 581.515l131.998 0.325195l-0.0908203 -612.995c0 -45.9482 -21.1191 -88.8672 -59.4668 -120.854c-37.0381 -30.8936 -86.0068 -47.9082 -137.885 -47.9082c-67.8242 0 -130.06 29.1465 -166.479 77.9688l-14.9482 20.0381l40.0762 29.8965l14.9492 -20.0391
c27.0293 -36.2314 74.2822 -57.8633 126.401 -57.8633c81.25 0 147.352 53.2793 147.352 118.766v14.3564c-0.323242 4.62793 -1.75879 13.2607 -7.74121 19.6025c-6.52441 6.91699 -17.8184 10.4248 -33.5684 10.4248l-40.5254 -0.116211
c-75.9834 0 -147.353 29.5605 -201.03 83.2393c-53.6787 53.6787 -83.2402 125.047 -83.2402 200.96c0 75.9121 29.5605 147.281 83.2402 200.959c53.6777 53.6787 125.046 83.2402 200.959 83.2402zM382.727 63.2295c15.6318 0 29.4814 -2.3623 41.4746 -7.0498v475.535
l-81.9355 -0.204102c-129.2 0 -234.262 -105.06 -234.262 -234.199c0 -129.136 105.06 -234.198 234.198 -234.198z" />
    <glyph glyph-name="h" unicode="h" horiz-adv-x="559" 
d="M426.331 505.692c38.4775 -41.5586 59.6689 -96.6855 59.6689 -155.222v-350.451h-50v350.451c0 94.0117 -69.9814 170.496 -156 170.496l-120.163 -0.131836c-4.73633 -0.224609 -19.5742 -0.256836 -35.8369 6.40527v-527.221h-50v783.98h50v-171.29
c0 -15.999 3.62793 -27.4648 10.7852 -34.0791c8.88965 -8.21777 22.375 -7.875 22.375 -7.875l122.813 0.210938c55.4189 0 107.386 -23.1807 146.357 -65.2744z" />
    <glyph glyph-name="i" unicode="i" horiz-adv-x="197" 
d="M72 0.0195312v578.98h50v-578.98h-50zM97 757.709c13.8066 0 25 -11.1924 25 -25v-13.709c0 -13.8076 -11.1934 -25 -25 -25c-13.8076 0 -25 11.1924 -25 25v13.709c0 13.8066 11.1924 25 25 25z" />
    <glyph glyph-name="j" unicode="j" horiz-adv-x="344" 
d="M244.002 757.709c13.8066 0 25 -11.1924 25 -25v-13.709c0 -13.8076 -11.1924 -25 -25 -25s-25 11.1924 -25 25v13.709c0 13.8066 11.1924 25 25 25zM219.002 20.2373v583.763h50v-583.763c0 -58.5361 -21.1904 -113.661 -59.6709 -155.222
c-38.9717 -42.0918 -90.9375 -65.2744 -146.331 -65.2744h-25v50h25c86.0205 0 156.002 76.4834 156.002 170.496z" />
    <glyph glyph-name="k" unicode="k" horiz-adv-x="577" 
d="M250.767 323.728l278.831 -323.709h-66.6328l-250.354 291.391c-0.316406 0.369141 -0.334961 0.37207 -0.5625 0.675781c-0.967773 1.09961 -10.2764 11.3242 -21.4863 11.8438c-4.04492 0.188477 -8.31641 -0.943359 -12.7744 -3.35352l-53.7881 -42.6816v-257.874h-50
v783.98h50v-462.277l324.089 257.277h80.8848l-299.147 -237.128c11.54 -7.25879 18.8311 -15.5713 20.9404 -18.1445z" />
    <glyph glyph-name="l" unicode="l" horiz-adv-x="200" 
d="M74 0.0195312v783.98h50v-783.98h-50z" />
    <glyph glyph-name="m" unicode="m" horiz-adv-x="915" 
d="M782.331 513.692c38.4795 -41.5586 59.6709 -96.6836 59.6709 -155.22v-358.451h-50v358.451c0 94.0117 -69.9814 170.496 -156 170.496c-86.0195 0 -156 -76.4844 -156 -170.496v-358.451h-50v358.451c0 94.0117 -69.9814 170.496 -156 170.496
c-86.0195 0 -156 -76.4844 -156 -170.496v-358.451h-50v358.451c0 58.5361 21.1914 113.662 59.6689 155.221c38.9717 42.0928 90.9385 65.2744 146.33 65.2744s107.359 -23.1816 146.33 -65.2744c13.8662 -14.9785 25.4766 -31.7246 34.6699 -49.751
c9.19336 18.0264 20.8027 34.7725 34.6699 49.75c38.9717 42.0928 90.9375 65.2744 146.33 65.2744c55.3916 0 107.357 -23.1807 146.33 -65.2744z" />
    <glyph glyph-name="n" unicode="n" horiz-adv-x="553" 
d="M480 0.0195312h-49.999v358.451c0 94.0117 -69.9814 170.496 -156 170.496c-86.0195 0 -156 -76.4844 -156 -170.496v-358.451h-50v358.451c0 58.5361 21.1904 113.662 59.6689 155.221c38.9717 42.0938 90.9385 65.2744 146.33 65.2744
s107.358 -23.1816 146.33 -65.2744c38.4795 -41.5596 59.6699 -96.6846 59.6699 -155.221v-358.451z" />
    <glyph glyph-name="o" unicode="o" horiz-adv-x="624" 
d="M308.472 0.669922c-34.3223 0 -67.582 7.85352 -98.8594 23.3447c-29.8945 14.8076 -56.6699 35.9189 -79.584 62.751c-46.4482 54.3906 -72.0283 126.46 -72.0283 202.931c0 76.4736 25.5801 148.542 72.0283 202.935c22.9141 26.832 49.6885 47.9453 79.584 62.751
c31.2773 15.4912 64.5381 23.3467 98.8604 23.3467c34.3213 0 67.583 -7.85352 98.8594 -23.3457c29.8955 -14.8076 56.6699 -35.9189 79.584 -62.751c46.4473 -54.3916 72.0264 -126.461 72.0264 -202.935c0 -76.4717 -25.5801 -148.54 -72.0264 -202.932
c-22.9141 -26.832 -49.6895 -47.9434 -79.585 -62.751c-31.2764 -15.4902 -64.5381 -23.3447 -98.8594 -23.3447zM308.473 528.729c-110.541 0 -200.473 -107.229 -200.473 -239.03c0 -131.8 89.9316 -239.026 200.473 -239.026c110.539 0 200.47 107.229 200.47 239.026
c-0.000976562 131.802 -89.9307 239.03 -200.47 239.03z" />
    <glyph glyph-name="p" unicode="p" horiz-adv-x="552" 
d="M405.195 500.68c53.7168 -53.7158 83.2998 -125.136 83.2998 -201.104c0 -75.9668 -29.583 -147.386 -83.2988 -201.104c-53.7158 -53.7168 -125.136 -83.2988 -201.175 -83.2988l-40.5537 0.114258c-15.7607 0 -27.0635 -3.50977 -33.5928 -10.4326
c-8.52246 -9.03223 -7.83887 -22.6064 -7.83887 -22.6064v-182.249h-50.0352v783.979h132.092c75.9668 0 147.387 -29.584 201.103 -83.2998zM122.037 58.2744c11.999 4.68945 25.8594 7.05371 41.5039 7.05371l40.5537 -0.115234
c129.229 0 234.366 105.136 234.366 234.364c0 129.231 -105.137 234.368 -234.367 234.368h-82.0566v-475.671z" />
    <glyph glyph-name="q" unicode="q" horiz-adv-x="549" 
d="M342.402 583.98h132.093v-783.979h-50.0361v182.252s0.68457 13.5732 -7.83887 22.6064c-6.52832 6.92188 -17.832 10.4326 -33.5928 10.4326l-40.5537 -0.115234c-76.0391 0 -147.458 29.582 -201.175 83.2988c-53.7168 53.7178 -83.2979 125.136 -83.2979 201.102
c0 75.9678 29.582 147.388 83.2988 201.104c53.7158 53.7158 125.136 83.2998 201.103 83.2998zM424.458 533.945l-82.0566 -0.000976562c-129.229 0 -234.365 -105.137 -234.365 -234.368c0 -129.229 105.137 -234.364 234.365 -234.364l40.5537 0.115234
c15.6445 0 29.5049 -2.36133 41.5029 -7.05273v475.671z" />
    <glyph glyph-name="r" unicode="r" horiz-adv-x="325" 
d="M118.053 0.0195312l-50.0537 0.00195312v358.25c0 58.5986 21.2129 113.781 59.7314 155.385c39.0137 42.1367 91.0381 65.3438 146.488 65.3438v-50.0537c-86.1104 0 -156.166 -76.5654 -156.166 -170.678v-358.249z" />
    <glyph glyph-name="s" unicode="s" horiz-adv-x="512" 
d="M258.223 0.15918c-52.3789 0 -91.4785 6.61816 -123.056 20.833c-34.4502 15.5098 -54.9561 38.4619 -68.9717 56.7285l-15.1934 19.8008l39.5996 30.3857l15.1924 -19.7988c23.4688 -30.584 52.7861 -58.0352 152.431 -58.0352
c90.8398 0 147.271 44.2852 147.271 115.574c0 30.8564 -12.5586 52.1709 -40.7236 69.1094c-28.5537 17.1709 -69.7803 27.6475 -109.651 37.7793c-43.7393 11.1152 -88.9658 22.6094 -124.198 43.9072c-43.4639 26.2764 -65.502 64.4883 -65.502 113.576
c0 44.0889 15.998 80.9277 46.2646 106.534c33.0508 27.9609 82.3525 42.1387 146.539 42.1387c60.8564 0 117.616 -28.4824 155.729 -78.1465l15.1934 -19.7988l-39.5996 -30.3877l-15.1924 19.7998c-28.5869 37.2539 -70.915 58.6191 -116.129 58.6191
c-94.8145 0 -142.892 -33.2275 -142.892 -98.7598c0 -31.6924 12.7715 -53.5479 41.4111 -70.8604c28.8877 -17.4629 70.4629 -28.0273 110.669 -38.2461c43.375 -11.0205 88.2285 -22.4209 123.082 -43.3838c43.0723 -25.9043 64.9121 -63.5459 64.9121 -111.883
c0 -46.6748 -18.209 -88.5615 -51.2715 -117.94c-35 -31.1035 -85.457 -47.5459 -145.914 -47.5459z" />
    <glyph glyph-name="t" unicode="t" horiz-adv-x="333" 
d="M120.128 221.078c0 -94.252 70.1621 -170.931 156.4 -170.929v-50.1289c-55.5322 0 -107.634 23.2412 -146.706 65.4414c-38.5762 41.667 -59.8213 96.9307 -59.8213 155.616v562.922h50.1279v-222.773c12.0127 4.70117 25.8701 7.08301 41.5078 7.08301h114.89v-50.1279
h-114.891c-15.9844 0 -27.3887 -3.60352 -33.8975 -10.7109c-6.53516 -7.13672 -7.49023 -17.21 -7.61035 -20.8857v-265.507z" />
    <glyph glyph-name="u" unicode="u" horiz-adv-x="549" 
d="M273 0.0195312c-55.3916 0 -107.36 23.1826 -146.332 65.2744c-38.4775 41.5605 -59.6689 96.6855 -59.6689 155.223v358.451h50v-358.451c0 -94.0117 69.9805 -170.496 156 -170.496c86.0186 0 156 76.4844 156 170.496v358.451h50v-358.451
c0 -58.5361 -21.1904 -113.662 -59.6689 -155.223c-38.9707 -42.0938 -90.9385 -65.2744 -146.33 -65.2744z" />
    <glyph glyph-name="v" unicode="v" horiz-adv-x="570" 
d="M306.553 0.0810547h-46.8818l-215.671 578.919h53.2334l185.879 -498.538l185.629 498.538h53.4609z" />
    <glyph glyph-name="w" unicode="w" horiz-adv-x="877" 
d="M613.003 0.0380859l-46.8135 -0.0185547l-129.829 418.438l-129.733 -418.438l-46.9121 0.0185547l-215.714 578.962h53.2637l183.722 -492.748l131.478 424.098h47.791l131.477 -424.098l183.472 492.748h53.6729z" />
    <glyph glyph-name="x" unicode="x" horiz-adv-x="576" 
d="M526.493 579l-209.601 -289.479l209.726 -289.502l-59.998 0.0390625l-179.541 248.243l-179.541 -248.243l-59.4131 -0.0390625l209.142 289.502l-209.267 289.479l59.5381 -0.0146484l179.541 -248.244l179.541 248.244z" />
    <glyph glyph-name="y" unicode="y" horiz-adv-x="574" 
d="M474.909 578.998l51.5908 0.000976562l-239.815 -641.497c-13.876 -39.7119 -38.3301 -73.7363 -70.7285 -98.4033c-33.5713 -25.5576 -73.166 -39.0654 -114.505 -39.0654h-23.9932v47.9863h23.9932c61.7773 0 118.039 42.4033 140.001 105.516l0.182617 0.504883
l2.66992 8.78027c5.36133 15.5703 4.01172 43.2998 -3.80176 78.0771c-6.38086 28.4043 -14.7305 51.1836 -14.8135 51.4111l-181.688 486.691h51.5l175.185 -470.015c0.345703 -0.939453 6.74707 -18.4121 12.9609 -42.3945z" />
    <glyph glyph-name="z" unicode="z" horiz-adv-x="561" 
d="M488.857 -0.149414h-438.835l-0.0214844 40.9902l386.936 487.786h-367.53v50.1738h439.104v-40.6768l-387.183 -488.1h367.529v-50.1738z" />
    <glyph glyph-name="braceleft" unicode="{" horiz-adv-x="409" 
d="M328.312 -124.269c-58.5488 0 -98.1494 24.3057 -117.732 72.291c-16.374 40.1182 -17.4805 93.3076 -18.6514 149.62c-3.41309 164.215 -28.7109 199.891 -101.158 203.482l-42.7715 0.353516v57.1455l42.7734 0.130859
c72.4482 3.58984 97.7451 39.2646 101.158 203.479c1.1709 56.3125 2.27637 109.503 18.6504 149.623c20.0137 49.0371 60.96 73.3672 121.626 72.2539l28.8086 -0.519531v-57.6191l-29.8477 0.521484c-45.7148 0.822266 -59.3145 -17.0137 -67.2314 -36.4111
c-12.3359 -30.2266 -13.334 -78.2266 -14.3896 -129.044c-2.0332 -97.7676 -11.7969 -153.394 -33.7002 -192.001c-9.01465 -15.8887 -20.0977 -28.8789 -33.5107 -39.0996c13.4121 -10.2207 24.4951 -23.2109 33.5107 -39.1006
c21.9033 -38.6064 31.667 -94.2334 33.7002 -191.999c1.05566 -50.8174 2.05469 -98.8174 14.3896 -129.046c7.91699 -19.3936 21.5391 -37.2021 67.2324 -36.4092l29.8477 0.520508v-57.6182l-28.8086 -0.519531
c-1.30957 -0.0234375 -2.60547 -0.0351562 -3.89551 -0.0351562z" />
    <glyph glyph-name="bar" unicode="|" horiz-adv-x="200" 
d="M75 -136.031v920.031h50v-920.031h-50z" />
    <glyph glyph-name="braceright" unicode="}" horiz-adv-x="410" 
d="M81.7031 -124.269c-1.28906 0 -2.58594 0.0117188 -3.89648 0.0351562l-28.8076 0.518555v57.6182l29.8477 -0.520508c45.6934 -0.792969 59.3154 17.0156 67.2324 36.4092c12.335 30.2275 13.334 78.2275 14.3896 129.046c2.0332 97.7666 11.7969 153.393 33.7002 192
c9.01562 15.8896 20.0986 28.8799 33.5107 39.1006c-13.4131 10.2207 -24.4961 23.2109 -33.5107 39.0996c-21.9033 38.6074 -31.667 94.2334 -33.7002 192.001c-1.05566 50.8164 -2.05371 98.8164 -14.3896 129.045c-7.91699 19.3965 -21.5166 37.2324 -67.2314 36.4102
l-29.8477 -0.518555v57.6182l28.8086 0.519531c60.666 1.11328 101.612 -23.2168 121.626 -72.2539c16.374 -40.1201 17.4795 -93.3105 18.6504 -149.622c3.41309 -164.215 28.71 -199.89 101.159 -203.479l42.7715 -0.128906v-57.1465l-42.7715 -0.355469
c-72.4482 -3.59082 -97.7461 -39.2666 -101.159 -203.48c-1.1709 -56.3135 -2.27734 -109.503 -18.6514 -149.621c-19.582 -47.9873 -59.1807 -72.2939 -117.73 -72.2939z" />
    <glyph glyph-name="asciitilde" unicode="~" horiz-adv-x="561" 
d="M371.712 266.138c-42.7627 0 -81.2158 30.5068 -115.696 57.8623c-30.6699 24.333 -62.3838 49.4951 -86.0762 43.9238c-18.1533 -4.26855 -37.5381 -27.4023 -56.0557 -66.9043l-10.6113 -22.6357l-45.2734 21.2217l10.6104 22.6357
c25.959 55.376 55.3604 86.2402 89.8877 94.3555c22.1309 5.20215 45.3389 1.03027 70.9512 -12.7539c19.8232 -10.6689 39.0498 -25.9219 57.6426 -40.6729c32.5049 -25.7881 66.1172 -52.4512 93.5811 -45.9873c23.2471 5.47363 47.0645 33.9629 70.793 84.6768
l10.5947 22.6455l45.2881 -21.1895l-10.5947 -22.6436c-15.627 -33.4004 -31.5527 -58.6191 -48.6836 -77.0986c-17.2236 -18.5791 -36.0439 -30.375 -55.9375 -35.0596c-6.91211 -1.62598 -13.7217 -2.37598 -20.4199 -2.37598z" />
    <glyph glyph-name="exclamdown" unicode="&#xa1;" horiz-adv-x="205" 
d="M78.4697 0.174805v470.669h50.0732v-470.669h-50.0732zM103.898 685.515c-27.3564 0 -46.8975 20.3242 -46.8975 49.2441c0 28.1377 18.7598 49.2412 46.1162 49.2412c28.9199 0 46.8965 -21.1045 46.8965 -49.2422
c0.000976562 -28.9199 -18.7588 -49.2432 -46.1152 -49.2432z" />
    <glyph glyph-name="cent" unicode="&#xa2;" horiz-adv-x="509" 
d="M411.062 107.752l14.9512 20.0391l40.0762 -29.8984l-14.9492 -20.0371c-31.2822 -41.9307 -81.6133 -69.3291 -138.163 -76.2314v-53.7686h-50v53.2432c-25.4736 2.74316 -50.2002 10.2002 -73.752 22.3154c-28.9131 14.8721 -54.791 36.0566 -76.916 62.9629
c-44.6943 54.3525 -69.3076 126.325 -69.3076 202.659v0.779297c0 76.335 24.6133 148.308 69.3066 202.662c22.125 26.9062 48.0029 48.0898 76.916 62.9619c23.5518 12.1143 48.2783 19.5723 73.752 22.3154v53.2451h50v-53.7666
c56.5488 -6.90527 106.88 -34.3027 138.163 -76.2334l14.9492 -20.0391l-40.0762 -29.8984l-14.9502 20.0381c-26.9834 36.167 -74.1152 57.7861 -126.119 57.8652c-105.867 -0.169922 -191.944 -107.387 -191.944 -239.15v-0.779297
c0 -131.762 86.0771 -238.979 191.944 -239.149c52.0049 0.0791016 99.1377 21.6982 126.119 57.8652z" />
    <glyph glyph-name="sterling" unicode="&#xa3;" horiz-adv-x="605" 
d="M555.474 0.0195312l-506.473 0.00292969v49.3574c26.002 0 45.5576 8.10547 62.6826 48.4531c19.9287 46.957 30.8037 127.008 33.0635 243.898l-78.4385 -0.126953l-0.0800781 50l78.9688 0.126953c0.0888672 77.8867 5.26074 141.229 15.8105 193.575
c10.1572 50.3955 25.1055 89.4287 45.7012 119.325c19.4434 28.2227 43.4229 47.7285 73.3086 59.6318c23.9014 9.51758 50.9531 13.9521 85.1377 13.9521c36.8369 -0.000976562 73.0342 -15.7051 104.679 -45.415c28.6221 -26.8701 53.8857 -65.6465 73.0625 -112.132
l-46.2207 -19.0684c-32.708 79.2812 -81.874 126.614 -131.521 126.614c-57.876 0 -91.8516 -15.0508 -117.271 -51.9502c-35.2803 -51.2119 -52.5166 -144.275 -52.6885 -284.452l222.208 0.361328l0.0810547 -50l-222.72 -0.362305
c-2.33203 -125.423 -14.2715 -209.831 -37.0566 -263.516c-4.34961 -10.25 -9.12988 -19.4072 -14.3584 -27.5625l412.064 0.481445z" />
    <glyph glyph-name="currency" unicode="&#xa4;" horiz-adv-x="590" 
d="M498.962 364.021c0 -45.3311 -12.4727 -88.626 -35.6318 -125.18l72.1719 -72.1719l-35.3555 -35.3555l-68.3984 68.3994c-37.2871 -36.6172 -85.0176 -56.6465 -135.684 -56.6465s-98.3945 20.0312 -135.683 56.6465l-68.3975 -68.3994l-35.3545 35.3555
l72.1719 72.1719c-23.1553 36.5537 -35.6318 79.8477 -35.6318 125.179c0 45.7812 12.7148 89.4883 36.3125 126.271l-73.4834 73.4834l35.3555 35.3555l69.9277 -69.9277c37.1553 36.0586 84.5234 55.7695 134.784 55.7695c50.1172 0 97.3604 -19.5967 134.467 -55.459
l69.6152 69.6162l35.3555 -35.3555l-73.1045 -73.1035c23.7539 -36.8613 36.5625 -80.71 36.5625 -126.649zM296.068 193.068c84.3057 0 152.896 76.6885 152.896 170.952c0 94.2646 -68.5889 170.952 -152.896 170.952s-152.896 -76.6885 -152.896 -170.953
c0 -94.2637 68.5879 -170.951 152.896 -170.951z" />
    <glyph glyph-name="yen" unicode="&#xa5;" horiz-adv-x="699" 
d="M389.442 397.536c-2.27637 -5.89355 -6.04004 -16.7793 -9.28418 -31.4658h161.061v-49.1016h-167.072c-0.0615234 -2.31738 -0.105469 -60.3916 -0.105469 -60.3916h167.18v-49.1025h-167.179v-207.52h-49.1025v207.519h-169.145v49.1025h169.144
s-0.0439453 58.0762 -0.107422 60.3916h-169.037v49.1016h163.023c-3.23926 14.6689 -7.00293 25.5547 -9.29004 31.4775l-265.526 357.672l39.4248 29.2676l266.062 -358.394l266.062 358.394l39.4268 -29.2676z" />
    <glyph glyph-name="section" unicode="&#xa7;" horiz-adv-x="501" 
d="M450.987 390.44c0 -43.752 -15.7021 -83.1416 -44.2061 -110.909c-12.5996 -12.2754 -27.4844 -22.1738 -44.3164 -29.582c26.3369 -23.6006 39.668 -54.7295 39.668 -92.8125c0 -43.7539 -15.6982 -83.1426 -44.2021 -110.913
c-30.707 -29.916 -74.9541 -45.7285 -127.957 -45.7285c-96.043 0 -136.477 29.6533 -167.64 74.1738l-14.3359 20.4814l40.9629 28.6719l14.333 -20.4824c20.2393 -28.9131 43.7402 -52.8467 126.679 -52.8467c76.4912 0 122.158 39.8672 122.158 106.642
c0 40.4746 -21.5107 61.2178 -59.2207 77.0547c-4.62305 -0.255859 -143.799 43.0312 -174.487 63.3682c-37.7314 25.0078 -56.8643 61.082 -56.8643 107.223c0 41.3428 13.8242 76.0166 39.9775 100.275c15.3457 14.2334 34.6455 24.7568 57.7139 31.5234
c-32.4111 24.6709 -48.8398 58.7666 -48.8398 101.508c0 41.3418 13.8252 76.0176 39.9785 100.274c29.0547 26.9492 72.2666 40.6133 128.437 40.6133c53.5879 0 103.385 -27.2363 136.624 -74.7217l14.3379 -20.4814l-40.9619 -28.6729l-14.3359 20.4814
c-24.0996 34.4316 -58.0732 53.3936 -95.6602 53.3936c-43.1523 0 -74.9248 -9.1748 -94.4355 -27.2705c-15.9121 -14.7598 -23.9795 -36.1621 -23.9795 -63.6172c0 -62.0439 48.5352 -78.7148 127.726 -100.777c37.4199 -10.4258 76.1172 -21.2061 106.479 -41.2256
c37.4033 -24.6621 56.3682 -60.2041 56.3682 -105.643zM300.636 284.97c63.2783 7.00293 100.352 45.3135 100.351 105.472c0 60.4541 -47.9814 76.8906 -126.269 98.7012c-7.65723 2.13184 -15.3652 4.28613 -23.0479 6.52539h-21.6953
c-43.1523 0 -74.9248 -9.17578 -94.4355 -27.2715c-15.9111 -14.7578 -23.9795 -36.1611 -23.9795 -63.6162c0 -62.0439 48.5361 -78.7139 127.726 -100.777c20.6016 -5.73926 41.5801 -11.5967 61.3506 -19.0332z" />
    <glyph glyph-name="guillemotleft" unicode="&#xab;" horiz-adv-x="441" 
d="M224.68 115.975l-175.68 173.645l175.68 174.093l-0.0361328 -70.7451l-104.53 -103.123l104.206 -102.801zM380.875 115.976l-176.111 173.214l176.11 174.523l0.192383 -70.5176l-104.758 -103.351l105.108 -103.703z" />
    <glyph glyph-name="uni00B5" unicode="&#xb5;" horiz-adv-x="550" 
d="M437 784l49.998 -0.00195312v-350.451c0 -58.5371 -21.1904 -113.662 -59.668 -155.222c-38.9717 -42.0918 -90.9395 -65.2734 -146.331 -65.2734c0 0 -122.142 0.138672 -122.66 0.191406c-1.58301 0.03125 -14.251 0.0566406 -22.8213 -8.10449
c-6.97949 -6.64648 -10.5186 -18.0283 -10.5186 -33.8301v-171.29h-50v783.98h50v-527.219c16.2607 6.66309 31.0977 6.63184 35.8379 6.40527l120.19 -0.132812c85.9912 0 155.973 76.4844 155.973 170.496v350.451z" />
    <glyph glyph-name="paragraph" unicode="&#xb6;" horiz-adv-x="644" 
d="M570.419 784.1v-784.082h-50v358.155c-0.380859 4.71582 -1.90625 13.0244 -7.70996 19.1758c-5.94141 6.29785 -15.8506 9.75879 -29.4629 10.3301v-387.661h-50v387.98l-185.955 0.108398c-108.761 0 -197.292 88.5322 -197.292 197.354
s88.5322 197.354 197.353 197.354zM247.352 438.107l185.895 -0.109375v295.554l-185.797 -0.739258c-81.3477 0 -147.449 -66.1006 -147.449 -147.352s66.1016 -147.354 147.352 -147.354zM483.246 437.696c13.8711 -0.380859 26.2871 -2.69629 37.1719 -6.93848v303.139
l-37.1719 -0.146484v-296.054z" />
    <glyph glyph-name="guillemotright" unicode="&#xbb;" horiz-adv-x="445" 
d="M220.738 115.975l0.360352 71.0674l104.206 102.801l-104.53 103.123l-0.0361328 70.7451l175.679 -174.093zM64.5439 115.974l-0.542969 70.167l105.109 103.703l-104.759 103.351l0.192383 70.5176l176.11 -174.523z" />
    <glyph glyph-name="questiondown" unicode="&#xbf;" horiz-adv-x="515" 
d="M273.483 688.319c-26.5664 0 -44.7852 19.7383 -44.7842 47.8232c0 27.3262 17.458 47.8213 45.5439 47.8213c26.5664 0 44.7852 -20.4951 44.7852 -47.8213c0 -28.0859 -18.9766 -47.8232 -45.5449 -47.8232zM106.145 54.5156
c-34.1133 32.0732 -52.1436 78.1572 -52.1436 133.271c0 65.7334 14.7373 115.654 45.0527 152.616c26.585 32.4102 60.1074 49.1162 89.6816 63.8555c45.376 22.6123 67.1875 35.3701 67.1875 77.9043v24.3145h48.6289v-24.3145
c0 -74.5225 -50.0049 -99.4424 -94.125 -121.43c-55.4346 -27.6279 -107.798 -53.7207 -107.798 -172.945c0 -92.3037 58.9414 -139.108 175.188 -139.108c54.9307 0 106.525 29.0986 141.556 79.833l13.8164 20.0078l40.0156 -27.6309l-13.8145 -20.0078
c-44.2461 -64.0801 -110.427 -100.831 -181.573 -100.831c-75.4766 0 -133.234 18.3252 -171.673 54.4658z" />
    <glyph glyph-name="Agrave" unicode="&#xc0;" horiz-adv-x="684" 
d="M364.426 784.051l273.546 -784.027h-52.6611l-105.249 301.91c-17.8096 -8.70312 -41.6621 -13.1025 -71.2061 -13.1025h-148.147c-26.4482 0.000976562 -47.833 -7.59766 -63.5635 -22.583c-10.123 -9.64551 -14.3477 -19.0732 -14.7695 -20.0596l-85.9375 -246.169
h-52.4385l273.652 784.039zM408.854 338.369c33.0449 0 48.748 6.61523 54.6152 11.1445l-122.447 351.188l-129.034 -369.668c13.75 4.46777 29.9033 7.33496 48.7168 7.33496h0.000976562h148.148zM239.797 910.108l30.3984 39.6943l164.707 -126.139l-30.3984 -39.6934z
" />
    <glyph glyph-name="Aacute" unicode="&#xc1;" horiz-adv-x="684" 
d="M364.426 784.051l273.546 -784.027h-52.6611l-105.249 301.91c-17.8096 -8.70312 -41.6621 -13.1025 -71.2061 -13.1025h-148.147c-26.4482 0.000976562 -47.833 -7.59766 -63.5635 -22.583c-10.123 -9.64551 -14.3477 -19.0732 -14.7695 -20.0596l-85.9375 -246.169
h-52.4385l273.652 784.039zM408.854 338.369c33.0449 0 48.748 6.61523 54.6152 11.1445l-122.447 351.188l-129.034 -369.668c13.75 4.46777 29.9033 7.33496 48.7168 7.33496h0.000976562h148.148zM215.593 823.649l164.706 126.139l30.4004 -39.6934l-164.707 -126.139z
" />
    <glyph glyph-name="Acircumflex" unicode="&#xc2;" horiz-adv-x="684" 
d="M364.426 784.051l273.546 -784.027h-52.6611l-105.249 301.91c-17.8096 -8.70312 -41.6621 -13.1025 -71.2061 -13.1025h-148.147c-26.4482 0.000976562 -47.833 -7.59766 -63.5635 -22.583c-10.123 -9.64551 -14.3477 -19.0732 -14.7695 -20.0596l-85.9375 -246.169
h-52.4385l273.652 784.039zM408.854 338.369c33.0449 0 48.748 6.61523 54.6152 11.1445l-122.447 351.188l-129.034 -369.668c13.75 4.46777 29.9033 7.33496 48.7168 7.33496h0.000976562h148.148zM347.145 899.201l-166.215 -115.718l-28.5693 41.0361l196.19 136.584
l179.211 -137.254l-30.4033 -39.6963z" />
    <glyph glyph-name="Atilde" unicode="&#xc3;" horiz-adv-x="684" 
d="M364.426 784.051l273.546 -784.027h-52.6611l-105.249 301.91c-17.8096 -8.70312 -41.6621 -13.1025 -71.2061 -13.1025h-148.147c-26.4482 0.000976562 -47.833 -7.59766 -63.5635 -22.583c-10.123 -9.64551 -14.3477 -19.0732 -14.7695 -20.0596l-85.9375 -246.169
h-52.4385l273.652 784.039zM408.854 338.369c33.0449 0 48.748 6.61523 54.6152 11.1445l-122.447 351.188l-129.034 -369.668c13.75 4.46777 29.9033 7.33496 48.7168 7.33496h0.000976562h148.148zM264.461 840.104l-10.6123 -22.6338l-45.2715 21.2236l10.6104 22.6367
c15.251 32.5332 33.2959 50.8467 55.1641 55.9854c30.376 7.14062 55.4199 -12.7324 77.5195 -30.2656c13.4297 -10.6553 30.1514 -23.917 38.9316 -21.8447c2.99414 0.705078 13.9316 5.51562 29.0586 37.8467l10.5957 22.6436l45.2871 -21.1875l-10.5947 -22.6455
c-18.123 -38.7324 -38.1055 -59.4902 -62.8877 -65.3262c-4.58984 -1.08008 -9.08008 -1.57324 -13.4629 -1.57324c-26.5156 0 -49.2275 18.0215 -68.0039 32.917c-11.2256 8.90625 -28.1914 22.3662 -35.001 20.7617
c-0.915039 -0.214844 -9.28809 -2.84277 -21.333 -28.5381z" />
    <glyph glyph-name="Adieresis" unicode="&#xc4;" horiz-adv-x="685" 
d="M364.426 784.051l273.546 -784.027h-52.6611l-105.249 301.91c-17.8096 -8.70312 -41.6621 -13.1025 -71.2061 -13.1025h-148.147c-26.4482 0.000976562 -47.833 -7.59766 -63.5635 -22.583c-10.123 -9.64551 -14.3477 -19.0732 -14.7695 -20.0596l-85.9375 -246.169
h-52.4385l273.652 784.039zM408.854 338.369c33.0449 0 48.748 6.61523 54.6152 11.1445l-122.447 351.188l-129.034 -369.668c13.75 4.46777 29.9033 7.33496 48.7168 7.33496h0.000976562h148.148zM251.006 809.866c-13.8086 0 -25 11.1924 -25 25v13.71
c0 13.8066 11.1914 25 25 25c13.8057 0 25 -11.1934 25 -25v-13.71c0 -13.8086 -11.1934 -25 -25 -25zM431.006 809.866c-13.8096 0 -25 11.1924 -25 25v13.71c0 13.8066 11.1904 25 25 25c13.8057 0 25 -11.1934 25 -25v-13.71c0 -13.8086 -11.1934 -25 -25 -25z" />
    <glyph glyph-name="Aring" unicode="&#xc5;" horiz-adv-x="684" 
d="M364.426 784.051l273.547 -784.027h-52.6611l-105.249 301.91c-17.8105 -8.7041 -41.6641 -13.1025 -71.207 -13.1025h-148.147c-26.4473 0.000976562 -47.833 -7.59766 -63.5635 -22.583c-10.123 -9.64355 -14.3477 -19.0732 -14.7695 -20.0596l-85.9375 -246.169
h-52.4385l273.649 784.034c-35.4766 9.82715 -61.6064 42.3838 -61.6064 80.9463c0 46.3174 37.6816 84 84 84c46.3174 0 83.999 -37.6826 83.999 -84c0 -38.5674 -26.1348 -71.125 -61.6182 -80.9492h2.00293zM306.042 865.001c0 -18.748 15.252 -34 34 -34
c18.7471 0 33.999 15.252 33.999 34s-15.252 34 -33.999 34c-18.748 0 -34 -15.252 -34 -34zM408.855 338.369c33.0449 0 48.748 6.61426 54.6152 11.1436l-122.447 351.188l-129.033 -369.667c13.748 4.4668 29.9033 7.33496 48.7168 7.33496h0.000976562h148.147z" />
    <glyph glyph-name="AE" unicode="&#xc6;" horiz-adv-x="861" 
d="M795.942 0.779297l-466.726 -0.639648v290.725c-15.7422 -4.94824 -34.8555 -7.44824 -57.2031 -7.44824h-12.3643c-59.2549 0 -77.4395 -39.3408 -79.0615 -43.1543l-83.7266 -239.474h-52.8604l273.56 783.212h478.335l0.0263672 -49.9668l-416.74 -0.231445v-302.602
c11.9746 4.68457 25.7861 7.05859 41.374 7.05859h375.353v-49.9668h-375.352c-15.9326 0 -27.2998 -3.5918 -33.7881 -10.6768c-6.50684 -7.10742 -7.46387 -17.1328 -7.58594 -20.8076v-306.632l416.691 0.570312zM272.013 333.385
c42.6123 0 56.832 12.8633 57.2031 13.3135v319.367l-118.707 -340.078c13.8691 4.50391 30.1641 7.39746 49.1387 7.39746h0.000976562h12.3643z" />
    <glyph glyph-name="Ccedilla" unicode="&#xc7;" horiz-adv-x="698" 
d="M590.467 181.659l13.2324 21.4971l43 -26.4658l-13.2334 -21.5c-28.877 -46.918 -66.6016 -85.8525 -109.096 -112.593c-38.0742 -23.96 -80.2881 -38.2656 -123.252 -41.9414v-22.4229c12.958 -4.94434 24.792 -13.6162 34.2051 -25.3789
c14.2217 -17.7695 22.0537 -41.0703 22.0537 -65.6064s-7.83203 -47.834 -22.0537 -65.6045c-15.3154 -19.1367 -37.0342 -30.1143 -59.5898 -30.1143c-26.2236 0 -50.9824 14.7891 -66.2285 39.5605l-13.2334 21.5l42.999 26.4668l13.2334 -21.5
c6.0752 -9.87207 14.542 -15.5332 23.2285 -15.5332c16.8838 0 31.1494 20.7109 31.1494 45.2285c0 24.5156 -14.2646 45.2295 -31.1494 45.2295h-25.2461l0.139648 50.4902v18.2451c-33.7754 3.62598 -66.5547 13.7588 -97.7715 30.2588
c-38.0547 20.1143 -72.1328 48.7842 -101.284 85.2139c-59.0488 73.791 -91.5703 171.572 -91.5703 275.334s32.5215 201.544 91.5684 275.335c29.1514 36.4287 63.2285 65.0986 101.284 85.2129c39.8877 21.083 82.3252 31.7715 126.136 31.7715
c50.5117 -0.000976562 100.783 -14.835 145.38 -42.9004c42.4941 -26.7383 80.2197 -65.6719 109.097 -112.59l13.2334 -21.5l-43 -26.4658l-13.2314 21.5c-51.4258 83.5469 -128.505 131.464 -211.479 131.464c-148.051 0 -268.497 -153.344 -268.497 -341.829
c0 -188.483 120.446 -341.828 268.497 -341.828c82.9746 0 160.055 47.917 211.479 131.466z" />
    <glyph glyph-name="Egrave" unicode="&#xc8;" horiz-adv-x="605" 
d="M208.953 926.157l30.3994 39.6943l164.707 -126.139l-30.4004 -39.6934zM539.967 50.0107l0.0664062 -49.999l-467.033 -0.640625v784.116l466.987 0.258789l0.0273438 -50l-417.014 -0.231445v-302.802c11.9814 4.68848 25.8027 7.06348 41.4004 7.06348h375.6v-50
h-375.599c-15.9434 0 -27.3184 -3.59375 -33.8105 -10.6826c-6.51172 -7.11133 -7.46875 -17.1426 -7.59082 -20.8203v-306.835z" />
    <glyph glyph-name="Eacute" unicode="&#xc9;" horiz-adv-x="605" 
d="M208.947 839.701l164.706 126.139l30.3994 -39.6943l-164.705 -126.138zM539.967 50.0098l0.0664062 -49.998l-467.033 -0.640625v784.116l466.987 0.258789l0.0273438 -50l-417.014 -0.231445v-302.802c11.9814 4.6875 25.8027 7.0625 41.4004 7.0625h375.6v-50
h-375.599c-15.9434 0 -27.3184 -3.59375 -33.8105 -10.6826c-6.51172 -7.11133 -7.46875 -17.1426 -7.59082 -20.8203v-306.835z" />
    <glyph glyph-name="Ecircumflex" unicode="&#xca;" horiz-adv-x="605" 
d="M313.601 915.717l-166.216 -115.717l-28.5684 41.0352l196.19 136.585l179.21 -137.255l-30.4023 -39.6953zM539.966 50.0098l0.0664062 -49.998l-467.033 -0.640625v784.116l466.987 0.258789l0.0273438 -50l-417.014 -0.231445v-302.802
c11.9814 4.6875 25.8027 7.0625 41.4004 7.0625h375.6v-50h-375.599c-15.9434 0 -27.3184 -3.59375 -33.8105 -10.6826c-6.51172 -7.11133 -7.46875 -17.1426 -7.59082 -20.8203v-306.835z" />
    <glyph glyph-name="Edieresis" unicode="&#xcb;" horiz-adv-x="605" 
d="M219.008 809.865c-13.8086 0 -25 11.1924 -25 25v13.71c0 13.8066 11.1914 25 25 25c13.8057 0 25 -11.1934 25 -25v-13.71c0 -13.8086 -11.1934 -25 -25 -25zM399.008 809.865c-13.8096 0 -25 11.1924 -25 25v13.71c0 13.8066 11.1904 25 25 25
c13.8057 0 25 -11.1934 25 -25v-13.71c0 -13.8086 -11.1934 -25 -25 -25zM539.966 50.0098l0.0664062 -49.998l-467.033 -0.640625v784.116l466.987 0.258789l0.0273438 -50l-417.014 -0.231445v-302.802c11.9814 4.6875 25.8027 7.0625 41.4004 7.0625h375.6v-50h-375.599
c-15.9434 0 -27.3184 -3.59375 -33.8105 -10.6826c-6.51172 -7.11133 -7.46875 -17.1426 -7.59082 -20.8203v-306.835z" />
    <glyph glyph-name="Igrave" unicode="&#xcc;" horiz-adv-x="274" 
d="M204.707 800.009l-164.707 126.138l30.3994 39.6953l164.707 -126.139zM87.5596 0.0195312v783.98h50v-783.98h-50z" />
    <glyph glyph-name="Iacute" unicode="&#xcd;" horiz-adv-x="271" 
d="M68.3984 800l-30.3984 39.6934l164.706 126.14l30.3994 -39.6943zM110.558 0.0195312v783.98h50v-783.98h-50z" />
    <glyph glyph-name="Icircumflex" unicode="&#xce;" horiz-adv-x="452" 
d="M234.19 977.62l179.21 -137.255l-30.4033 -39.6953l-150.213 115.047l-166.216 -115.717l-28.5684 41.0352zM200.7 0.0195312v783.98h50v-783.98h-50z" />
    <glyph glyph-name="Idieresis" unicode="&#xcf;" horiz-adv-x="307" 
d="M63 873.575c13.8066 0 25 -11.1934 25 -25v-13.71c0 -13.8086 -11.1934 -25 -25 -25c-13.8096 0 -25 11.1914 -25 25v13.71c0 13.8066 11.1904 25 25 25zM243 873.575c13.8066 0 25 -11.1934 25 -25v-13.71c0 -13.8086 -11.1934 -25 -25 -25
c-13.8096 0 -25 11.1914 -25 25v13.71c0 13.8066 11.1904 25 25 25zM127.557 0.0195312v783.98h50v-783.98h-50z" />
    <glyph glyph-name="Ntilde" unicode="&#xd1;" horiz-adv-x="635" 
d="M238.578 825.141l-10.6123 -22.6348l-45.2725 21.2236l10.6113 22.6348c15.251 32.5342 33.2959 50.8486 55.1641 55.9883c30.376 7.13965 55.4199 -12.7334 77.5195 -30.2666c13.4297 -10.6553 30.1514 -23.917 38.9316 -21.8447
c2.99414 0.704102 13.9316 5.5166 29.0586 37.8477l10.5947 22.6436l45.2881 -21.1875l-10.5957 -22.6455c-18.123 -38.7324 -38.1064 -59.4902 -62.8877 -65.3271c-4.58984 -1.0791 -9.0791 -1.57227 -13.4619 -1.57227c-26.5146 0 -49.2275 18.0215 -68.0039 32.917
c-11.2256 8.90527 -28.1914 22.3662 -35.001 20.7617c-0.915039 -0.214844 -9.28809 -2.84277 -21.333 -28.5381zM511.116 784.001l48.4395 0.000976562v-783.98h-44.9297l-393.185 681.56v-681.56h-48.4404v783.98h45.2822l392.833 -681.021v681.021z" />
    <glyph glyph-name="Ograve" unicode="&#xd2;" 
d="M280.342 926.162l30.3994 39.6943l164.706 -126.139l-30.3984 -39.6943zM604.57 667.084c58.8398 -73.7285 91.2471 -171.429 91.2471 -275.101s-32.4053 -201.372 -91.2461 -275.103c-29.0498 -36.4014 -63.0098 -65.0508 -100.936 -85.1504
c-39.7568 -21.0713 -82.0576 -31.7549 -125.726 -31.7549c-43.6689 0 -85.9697 10.6846 -125.728 31.7559c-37.9268 20.1006 -71.8867 48.749 -100.938 85.1504c-58.8389 73.7285 -91.2432 171.429 -91.2432 275.101s32.4053 201.372 91.2432 275.103
c29.0508 36.4014 63.0107 65.0508 100.938 85.1504c39.7568 21.0723 82.0576 31.7549 125.727 31.7549c43.668 0 85.9688 -10.6836 125.726 -31.7559c37.9258 -20.0986 71.8857 -48.749 100.936 -85.1504zM377.908 50.125c147.643 0 267.76 153.357 267.76 341.858
c0 188.5 -120.117 341.857 -267.76 341.857s-267.76 -153.356 -267.76 -341.857c0 -188.502 120.117 -341.858 267.76 -341.858z" />
    <glyph glyph-name="Oacute" unicode="&#xd3;" 
d="M280.335 839.706l164.707 126.14l30.3984 -39.6943l-164.707 -126.139zM604.57 667.084c58.8398 -73.7285 91.2471 -171.429 91.2471 -275.101s-32.4053 -201.372 -91.2461 -275.103c-29.0498 -36.4014 -63.0098 -65.0508 -100.936 -85.1504
c-39.7568 -21.0713 -82.0576 -31.7549 -125.726 -31.7549c-43.6689 0 -85.9697 10.6846 -125.728 31.7559c-37.9268 20.1006 -71.8867 48.749 -100.938 85.1504c-58.8389 73.7285 -91.2432 171.429 -91.2432 275.101s32.4053 201.372 91.2432 275.103
c29.0508 36.4014 63.0107 65.0508 100.938 85.1504c39.7568 21.0723 82.0576 31.7549 125.727 31.7549c43.668 0 85.9688 -10.6836 125.726 -31.7559c37.9258 -20.0986 71.8857 -48.749 100.936 -85.1504zM377.908 50.125c147.643 0 267.76 153.357 267.76 341.858
c0 188.5 -120.117 341.857 -267.76 341.857s-267.76 -153.356 -267.76 -341.857c0 -188.502 120.117 -341.858 267.76 -341.858z" />
    <glyph glyph-name="Ocircumflex" unicode="&#xd4;" 
d="M384.991 915.717l-166.215 -115.717l-28.5684 41.0352l196.19 136.585l179.21 -137.255l-30.4033 -39.6953zM604.57 667.084c58.8398 -73.7285 91.2471 -171.429 91.2471 -275.101s-32.4053 -201.372 -91.2461 -275.103
c-29.0498 -36.4014 -63.0098 -65.0508 -100.936 -85.1504c-39.7568 -21.0713 -82.0576 -31.7549 -125.726 -31.7549c-43.6689 0 -85.9697 10.6846 -125.728 31.7559c-37.9268 20.1006 -71.8867 48.749 -100.938 85.1504c-58.8389 73.7285 -91.2432 171.429 -91.2432 275.101
s32.4053 201.372 91.2432 275.103c29.0508 36.4014 63.0107 65.0508 100.938 85.1504c39.7568 21.0723 82.0576 31.7549 125.727 31.7549c43.668 0 85.9688 -10.6836 125.726 -31.7559c37.9258 -20.0986 71.8857 -48.749 100.936 -85.1504zM377.908 50.125
c147.643 0 267.76 153.357 267.76 341.858c0 188.5 -120.117 341.857 -267.76 341.857s-267.76 -153.356 -267.76 -341.857c0 -188.502 120.117 -341.858 267.76 -341.858z" />
    <glyph glyph-name="Otilde" unicode="&#xd5;" 
d="M300.209 825.141l-10.6123 -22.6328l-45.2715 21.2227l10.6104 22.6357c15.251 32.5342 33.2959 50.8486 55.1641 55.9893c30.376 7.13867 55.4199 -12.7344 77.5195 -30.2676c13.4297 -10.6553 30.1514 -23.917 38.9316 -21.8447
c2.99414 0.704102 13.9316 5.51562 29.0586 37.8467l10.5947 22.6426l45.2881 -21.1875l-10.5957 -22.6455c-18.123 -38.7324 -38.1064 -59.4902 -62.8877 -65.3271c-4.58984 -1.0791 -9.0791 -1.57227 -13.4619 -1.57227c-26.5156 0 -49.2275 18.0215 -68.0039 32.917
c-11.2256 8.90527 -28.1914 22.3662 -35.001 20.7617c-0.915039 -0.214844 -9.28809 -2.84277 -21.333 -28.5381zM604.57 667.086c58.8398 -73.7285 91.2471 -171.429 91.2471 -275.101s-32.4053 -201.372 -91.2461 -275.103
c-29.0498 -36.4014 -63.0098 -65.0508 -100.936 -85.1504c-39.7568 -21.0713 -82.0576 -31.7549 -125.726 -31.7549c-43.6689 0 -85.9697 10.6846 -125.728 31.7559c-37.9268 20.1006 -71.8867 48.749 -100.938 85.1504c-58.8389 73.7285 -91.2432 171.429 -91.2432 275.101
s32.4053 201.372 91.2432 275.103c29.0508 36.4014 63.0107 65.0508 100.938 85.1504c39.7568 21.0723 82.0576 31.7549 125.727 31.7549c43.668 0 85.9688 -10.6836 125.726 -31.7559c37.9258 -20.0986 71.8857 -48.749 100.936 -85.1504zM377.908 50.127
c147.643 0 267.76 153.357 267.76 341.858c0 188.5 -120.117 341.857 -267.76 341.857s-267.76 -153.356 -267.76 -341.857c0 -188.502 120.117 -341.858 267.76 -341.858z" />
    <glyph glyph-name="Odieresis" unicode="&#xd6;" 
d="M287.908 809.865c-13.8086 0 -25 11.1924 -25 25v13.71c0 13.8066 11.1904 25 25 25c13.8066 0 25 -11.1934 25 -25v-13.71c0 -13.8086 -11.1934 -25 -25 -25zM467.907 809.865c-13.8076 0 -25 11.1924 -25 25v13.71c0 13.8066 11.1914 25 25 25
c13.8076 0 25 -11.1934 25 -25v-13.71c0 -13.8086 -11.1924 -25 -25 -25zM604.57 667.084c58.8398 -73.7285 91.2471 -171.429 91.2471 -275.101s-32.4053 -201.372 -91.2461 -275.103c-29.0498 -36.4014 -63.0098 -65.0508 -100.936 -85.1504
c-39.7568 -21.0713 -82.0576 -31.7549 -125.726 -31.7549c-43.6689 0 -85.9697 10.6846 -125.728 31.7559c-37.9268 20.1006 -71.8867 48.749 -100.938 85.1504c-58.8389 73.7285 -91.2432 171.429 -91.2432 275.101s32.4053 201.372 91.2432 275.103
c29.0508 36.4014 63.0107 65.0508 100.938 85.1504c39.7568 21.0723 82.0576 31.7549 125.727 31.7549c43.668 0 85.9688 -10.6836 125.726 -31.7559c37.9258 -20.0986 71.8857 -48.749 100.936 -85.1504zM377.908 50.125c147.643 0 267.76 153.357 267.76 341.858
c0 188.5 -120.117 341.857 -267.76 341.857s-267.76 -153.356 -267.76 -341.857c0 -188.502 120.117 -341.858 267.76 -341.858z" />
    <glyph glyph-name="multiply" unicode="&#xd7;" horiz-adv-x="171" 
 />
    <glyph glyph-name="Oslash" unicode="&#xd8;" horiz-adv-x="764" 
d="M703.459 784l-90.7744 -122.056c56.2139 -73.0947 87.1123 -168.612 87.1123 -269.836c0 -103.699 -32.416 -201.424 -91.2705 -275.174c-29.0586 -36.4111 -63.0264 -65.0693 -100.964 -85.1738c-39.7666 -21.0771 -82.0771 -31.7646 -125.757 -31.7646
c-43.6807 0 -85.9932 10.6875 -125.761 31.7646c-26.2402 13.9053 -50.5781 31.9102 -72.71 53.7334l-63.792 -85.4756h-62.5439l92.5225 124.056c-55.333 72.8584 -85.71 167.644 -85.71 268.032c0 103.7 32.4141 201.426 91.2705 275.174
c29.0576 36.4121 63.0264 65.0693 100.965 85.1758c39.7676 21.0752 82.0801 31.7627 125.761 31.7627c43.6787 0 85.9912 -10.6855 125.758 -31.7627c25.6133 -13.5752 49.4092 -31.0635 71.1143 -52.1885l62.2295 83.7324h62.5498zM113.974 392.105
c0 -86.5059 25.3018 -165.597 66.9395 -225.887l367.499 493.414c-45.7617 46.5547 -103.681 74.4209 -166.607 74.4209c-147.683 0 -267.831 -153.397 -267.831 -341.948zM649.634 392.105c0 87.4199 -25.8418 167.27 -68.2666 227.792l-367.729 -493.721
c46.0049 -47.5117 104.522 -76.0205 168.166 -76.0205c147.681 0 267.83 153.397 267.83 341.949z" />
    <glyph glyph-name="Ugrave" unicode="&#xd9;" horiz-adv-x="636" 
d="M219.456 926.158l30.3994 39.6943l164.707 -126.139l-30.3994 -39.6934zM514.043 784.001h50.0049v-536.398c0 -65.9824 -25.6953 -128.015 -72.3535 -174.671c-46.6543 -46.6572 -108.688 -72.3516 -174.671 -72.3516s-128.014 25.6953 -174.671 72.3516
c-46.6572 46.6572 -72.3506 108.688 -72.3506 174.671v536.398h50v-536.398c0 -108.637 88.3828 -197.021 197.021 -197.021s197.021 88.3828 197.021 197.021v536.398z" />
    <glyph glyph-name="Uacute" unicode="&#xda;" horiz-adv-x="636" 
d="M219.451 839.701l164.706 126.139l30.4004 -39.6943l-164.707 -126.139zM514.042 784h50.0049v-536.398c0 -65.9824 -25.6953 -128.015 -72.3535 -174.671c-46.6543 -46.6572 -108.688 -72.3516 -174.671 -72.3516s-128.014 25.6953 -174.671 72.3516
c-46.6572 46.6572 -72.3506 108.688 -72.3506 174.671v536.398h50v-536.398c0 -108.637 88.3828 -197.021 197.021 -197.021s197.021 88.3828 197.021 197.021v536.398z" />
    <glyph glyph-name="Ucircumflex" unicode="&#xdb;" horiz-adv-x="636" 
d="M324.104 915.717l-166.214 -115.717l-28.5693 41.0352l196.19 136.585l179.211 -137.255l-30.4033 -39.6953zM514.042 784h50.0049v-536.398c0 -65.9824 -25.6953 -128.015 -72.3535 -174.671c-46.6543 -46.6572 -108.688 -72.3516 -174.671 -72.3516
s-128.014 25.6953 -174.671 72.3516c-46.6572 46.6572 -72.3506 108.688 -72.3506 174.671v536.398h50v-536.398c0 -108.637 88.3828 -197.021 197.021 -197.021s197.021 88.3828 197.021 197.021v536.398z" />
    <glyph glyph-name="Udieresis" unicode="&#xdc;" horiz-adv-x="636" 
d="M227.021 809.865c-13.8076 0 -25 11.1924 -25 25v13.71c0 13.8066 11.1924 25 25 25c13.8066 0 25 -11.1934 25 -25v-13.71c0 -13.8086 -11.1924 -25 -25 -25zM407.021 809.865c-13.8086 0 -25 11.1924 -25 25v13.71c0 13.8066 11.1914 25 25 25
c13.8066 0 25 -11.1934 25 -25v-13.71c0 -13.8086 -11.1924 -25 -25 -25zM514.043 784h50.0049v-536.398c0 -65.9824 -25.6953 -128.015 -72.3535 -174.671c-46.6543 -46.6572 -108.688 -72.3516 -174.671 -72.3516s-128.014 25.6953 -174.671 72.3516
c-46.6572 46.6572 -72.3506 108.688 -72.3506 174.671v536.398h50v-536.398c0 -108.637 88.3828 -197.021 197.021 -197.021s197.021 88.3828 197.021 197.021v536.398z" />
    <glyph glyph-name="germandbls" unicode="&#xdf;" horiz-adv-x="595" 
d="M71.6445 -0.103516l-0.642578 585.538c0 54.2451 18.3164 103.605 51.5732 139.014c35.8623 38.1836 86.2715 58.3633 145.778 58.3633c59.4355 0 109.319 -20.2783 144.263 -58.6455c31.9434 -35.0742 49.5352 -84.333 49.5352 -138.706
c0 -49.7461 -15.7744 -88.1309 -46.8877 -114.089c-26.0762 -21.7578 -58.377 -31.1787 -84.332 -38.748c-14.3545 -4.18848 -27.9111 -8.14258 -35.8955 -12.9121c-3.7041 -2.21387 -4.79004 -3.55273 -5.10742 -4.88672
c1.77832 -0.958008 5.53613 -2.56055 12.8838 -4.24805c9.90039 -2.27441 22.7842 -3.93848 36.4238 -5.69629c37.7871 -4.87598 84.8135 -10.9434 123.746 -35.6934c47.1455 -29.9727 71.0498 -80.5098 71.0498 -150.208c0 -29.4932 -6.29004 -58.3418 -18.6943 -85.7451
c-11.6494 -25.7314 -28.126 -49.0264 -48.9746 -69.2393c-41.8291 -40.5527 -96.9121 -63.8125 -151.126 -63.8125c-108.261 0 -145 49.0938 -148.833 54.6895l41.2568 28.248s-0.110352 0.180664 -0.358398 0.505859
c0.0634766 -0.0820312 6.42773 -8.27148 22.4082 -16.4131c15.249 -7.77051 42.4648 -17.0303 85.5264 -17.0303c88.3408 0 168.795 80.4541 168.795 168.796c0 69.5342 -27.3223 94.9463 -47.875 108.012c-29.542 18.7803 -68.7373 23.8379 -103.318 28.3008
c-21.7695 2.80957 -40.5674 5.2334 -55.9502 10.7998c-32.2705 11.6729 -37.0898 34.4678 -37.0898 47.0166c0 14.5254 5.13379 34.9082 29.5898 49.5234c13.4824 8.05664 30.0273 12.8828 47.543 17.9922c48.9668 14.2812 95.2188 27.7715 95.2188 104.838
c0 71.2344 -37.7764 147.354 -143.799 147.354c-89.5127 0 -147.352 -57.8389 -147.352 -147.352l0.644531 -585.512z" />
    <glyph glyph-name="agrave" unicode="&#xe0;" horiz-adv-x="533" 
d="M464.413 405.358l0.0654297 0.000976562v-25.0859c0 -1.44629 -0.0224609 -2.87891 -0.0634766 -4.29492v-206.594c0 -46.3428 -22.2598 -89.5449 -62.6787 -121.648c-38.7197 -30.7578 -89.8711 -47.6953 -144.026 -47.6953
c-54.1562 0 -105.308 16.9375 -144.028 47.6943c-40.4199 32.1045 -62.6797 75.3057 -62.6797 121.649s22.2598 89.5459 62.6787 121.651c38.7207 30.7559 89.873 47.6953 144.028 47.6953l121.334 0.0878906l2.2207 -0.0966797s-0.119141 0.0126953 -0.34375 0.0253906
c0.141602 -0.00976562 13.8652 -0.704102 22.9238 7.84082c6.41406 6.05078 9.90527 16.1875 10.3984 30.165v32.8701c0 65.7119 -66.3281 119.173 -147.857 119.173c-52.2969 0 -99.7129 -21.707 -126.835 -58.0635l-15 -20.1064l-40.2139 30l15 20.1064
c36.5459 48.9883 98.9941 78.2354 167.05 78.2354c52.0557 0 101.191 -17.0732 138.356 -48.0742c38.4795 -32.0967 59.6709 -75.166 59.6709 -121.271v-4.26562zM414.244 169.385l-0.000976562 125.418c-16.2119 -6.52246 -31.0205 -6.41992 -35.9668 -6.15723
l-120.55 -0.0869141c-42.8877 0 -82.957 -13.0742 -112.842 -36.8115c-28.1895 -22.3896 -43.7129 -51.6396 -43.7129 -82.3623s15.5234 -59.9736 43.7129 -82.3613c29.8848 -23.7373 69.9541 -36.8105 112.824 -36.8105c42.8711 0 82.9375 13.0732 112.822 36.8105
c28.1895 22.3877 43.7129 51.6387 43.7129 82.3613zM160.186 744.316l30.3994 39.6953l164.707 -126.139l-30.3994 -39.6943z" />
    <glyph glyph-name="aacute" unicode="&#xe1;" horiz-adv-x="533" 
d="M464.413 405.358l0.0654297 0.000976562v-25.0859c0 -1.44629 -0.0224609 -2.87891 -0.0634766 -4.29492v-206.594c0 -46.3428 -22.2598 -89.5449 -62.6787 -121.648c-38.7197 -30.7578 -89.8711 -47.6953 -144.026 -47.6953
c-54.1562 0 -105.308 16.9375 -144.028 47.6943c-40.4199 32.1045 -62.6797 75.3057 -62.6797 121.649s22.2598 89.5459 62.6787 121.651c38.7207 30.7559 89.873 47.6953 144.028 47.6953l121.334 0.0878906l2.2207 -0.0966797s-0.119141 0.0126953 -0.34375 0.0253906
c0.141602 -0.00976562 13.8652 -0.704102 22.9238 7.84082c6.41406 6.05078 9.90527 16.1875 10.3984 30.165v32.8701c0 65.7119 -66.3281 119.173 -147.857 119.173c-52.2969 0 -99.7129 -21.707 -126.835 -58.0635l-15 -20.1064l-40.2139 30l15 20.1064
c36.5459 48.9883 98.9941 78.2354 167.05 78.2354c52.0557 0 101.191 -17.0732 138.356 -48.0742c38.4795 -32.0967 59.6709 -75.166 59.6709 -121.271v-4.26562zM414.244 169.385l-0.000976562 125.418c-16.2119 -6.52246 -31.0205 -6.41992 -35.9668 -6.15723
l-120.55 -0.0869141c-42.8877 0 -82.957 -13.0742 -112.842 -36.8115c-28.1895 -22.3896 -43.7129 -51.6396 -43.7129 -82.3623s15.5234 -59.9736 43.7129 -82.3613c29.8848 -23.7373 69.9541 -36.8105 112.824 -36.8105c42.8711 0 82.9375 13.0732 112.822 36.8105
c28.1895 22.3877 43.7129 51.6387 43.7129 82.3613zM160.171 657.868l164.706 126.139l30.3984 -39.6934l-164.706 -126.139z" />
    <glyph glyph-name="acircumflex" unicode="&#xe2;" horiz-adv-x="542" 
d="M470.413 405.358h0.0654297v-25.0859c0 -1.44531 -0.0224609 -2.87891 -0.0634766 -4.29492v-206.594c0 -46.3428 -22.2598 -89.5449 -62.6787 -121.648c-38.7197 -30.7578 -89.8711 -47.6953 -144.026 -47.6953c-54.1562 0 -105.308 16.9375 -144.028 47.6943
c-40.4199 32.1045 -62.6797 75.3047 -62.6797 121.649c0 46.3438 22.2598 89.5459 62.6787 121.652c38.7207 30.7559 89.873 47.6953 144.028 47.6953l121.334 0.0878906l2.2207 -0.0966797s-0.119141 0.0117188 -0.34375 0.0244141
c0.141602 -0.00976562 13.8652 -0.704102 22.9238 7.8418c6.41406 6.05078 9.90527 16.1865 10.3984 30.165v32.8701c0 65.7119 -66.3281 119.173 -147.857 119.173c-52.2969 0 -99.7129 -21.707 -126.835 -58.0635l-15 -20.1055l-40.2139 30l15 20.1055
c36.5459 48.9883 98.9941 78.2354 167.05 78.2354c52.0557 0 101.191 -17.0732 138.356 -48.0742c38.4795 -32.0967 59.6709 -75.166 59.6709 -121.27v-4.2666zM420.245 169.384l-0.00195312 125.417c-16.2119 -6.52148 -31.0215 -6.41895 -35.9668 -6.15625
l-120.55 -0.0869141c-42.8877 0 -82.957 -13.0752 -112.842 -36.8125c-28.1895 -22.3887 -43.7129 -51.6387 -43.7129 -82.3613s15.5234 -59.9736 43.7129 -82.3613c29.8848 -23.7383 69.9541 -36.8105 112.824 -36.8105c42.8711 0 82.9375 13.0732 112.822 36.8105
c28.1895 22.3867 43.7129 51.6377 43.7139 82.3613zM283.311 729.519l-111.048 -74.666l-28.5693 41.0361l139.351 96.7979l0.266602 -0.202148l139.62 -96.5957l-28.5713 -41.0361z" />
    <glyph glyph-name="atilde" unicode="&#xe3;" horiz-adv-x="533" 
d="M464.413 405.358l0.0654297 0.000976562v-25.0859c0 -1.44629 -0.0224609 -2.87891 -0.0634766 -4.29492v-206.594c0 -46.3428 -22.2598 -89.5449 -62.6787 -121.648c-38.7197 -30.7578 -89.8711 -47.6953 -144.026 -47.6953
c-54.1562 0 -105.308 16.9375 -144.028 47.6943c-40.4199 32.1045 -62.6797 75.3057 -62.6797 121.649s22.2598 89.5459 62.6787 121.651c38.7207 30.7559 89.873 47.6953 144.028 47.6953l121.334 0.0878906l2.2207 -0.0966797s-0.119141 0.0126953 -0.34375 0.0253906
c0.141602 -0.00976562 13.8652 -0.704102 22.9238 7.84082c6.41406 6.05078 9.90527 16.1875 10.3984 30.165v32.8701c0 65.7119 -66.3281 119.173 -147.857 119.173c-52.2969 0 -99.7129 -21.707 -126.835 -58.0635l-15 -20.1064l-40.2139 30l15 20.1064
c36.5459 48.9883 98.9941 78.2354 167.05 78.2354c52.0557 0 101.191 -17.0732 138.356 -48.0742c38.4795 -32.0967 59.6709 -75.166 59.6709 -121.271v-4.26562zM414.244 169.385l-0.000976562 125.418c-16.2119 -6.52246 -31.0205 -6.41992 -35.9668 -6.15723
l-120.55 -0.0869141c-42.8877 0 -82.957 -13.0742 -112.842 -36.8115c-28.1895 -22.3896 -43.7129 -51.6396 -43.7129 -82.3623s15.5234 -59.9736 43.7129 -82.3613c29.8848 -23.7373 69.9541 -36.8105 112.824 -36.8105c42.8711 0 82.9375 13.0732 112.822 36.8105
c28.1895 22.3877 43.7129 51.6387 43.7129 82.3613zM186.304 700.955l-10.6123 -22.6338l-45.2715 21.2246l10.6094 22.6367c15.252 32.5342 33.2969 50.8467 55.1641 55.9873c30.375 7.14062 55.4209 -12.7354 77.5205 -30.2676
c13.4287 -10.6553 30.1494 -23.916 38.9307 -21.8447c2.99414 0.705078 13.9336 5.51562 29.0605 37.8467l10.5947 22.6436l45.2891 -21.1904l-10.5967 -22.6455c-18.123 -38.7334 -38.1055 -59.4922 -62.8877 -65.3271
c-4.58887 -1.08008 -9.0791 -1.57227 -13.4619 -1.57227c-26.5146 0 -49.2275 18.0215 -68.0039 32.917c-11.2246 8.90625 -28.1875 22.3652 -35.002 20.7627c-0.915039 -0.214844 -9.28809 -2.84277 -21.333 -28.5371z" />
    <glyph glyph-name="adieresis" unicode="&#xe4;" horiz-adv-x="533" 
d="M464.413 405.358l0.0654297 0.000976562v-25.0859c0 -1.44629 -0.0224609 -2.87891 -0.0634766 -4.29492v-206.594c0 -46.3428 -22.2598 -89.5449 -62.6787 -121.648c-38.7197 -30.7578 -89.8711 -47.6953 -144.026 -47.6953
c-54.1562 0 -105.308 16.9375 -144.028 47.6943c-40.4199 32.1045 -62.6797 75.3057 -62.6797 121.649s22.2598 89.5459 62.6787 121.651c38.7207 30.7559 89.873 47.6953 144.028 47.6953l121.334 0.0878906l2.2207 -0.0966797s-0.119141 0.0126953 -0.34375 0.0253906
c0.141602 -0.00976562 13.8652 -0.704102 22.9238 7.84082c6.41406 6.05078 9.90527 16.1875 10.3984 30.165v32.8701c0 65.7119 -66.3281 119.173 -147.857 119.173c-52.2969 0 -99.7129 -21.707 -126.835 -58.0635l-15 -20.1064l-40.2139 30l15 20.1064
c36.5459 48.9883 98.9941 78.2354 167.05 78.2354c52.0557 0 101.191 -17.0732 138.356 -48.0742c38.4795 -32.0967 59.6709 -75.166 59.6709 -121.271v-4.26562zM414.244 169.385l-0.000976562 125.418c-16.2119 -6.52246 -31.0205 -6.41992 -35.9668 -6.15723
l-120.55 -0.0869141c-42.8877 0 -82.957 -13.0742 -112.842 -36.8115c-28.1895 -22.3896 -43.7129 -51.6396 -43.7129 -82.3623s15.5234 -59.9736 43.7129 -82.3613c29.8848 -23.7373 69.9541 -36.8105 112.824 -36.8105c42.8711 0 82.9375 13.0732 112.822 36.8105
c28.1895 22.3877 43.7129 51.6387 43.7129 82.3613zM179.85 673.718c-13.8086 0 -25 11.1914 -25 25v13.709c0 13.8066 11.1914 25 25 25c13.8057 0 25 -11.1934 25 -25v-13.709c0 -13.8096 -11.1934 -25 -25 -25zM359.85 673.718c-13.8086 0 -25 11.1914 -25 25v13.709
c0 13.8066 11.1914 25 25 25c13.8057 0 25 -11.1934 25 -25v-13.709c0 -13.8096 -11.1934 -25 -25 -25z" />
    <glyph glyph-name="aring" unicode="&#xe5;" horiz-adv-x="533" 
d="M464.413 405.358l0.0654297 0.000976562v-25.0859c0 -1.44629 -0.0224609 -2.87891 -0.0634766 -4.29492v-206.594c0 -46.3428 -22.2598 -89.5449 -62.6787 -121.648c-38.7197 -30.7578 -89.8711 -47.6953 -144.026 -47.6953
c-54.1562 0 -105.308 16.9375 -144.028 47.6943c-40.4199 32.1045 -62.6797 75.3057 -62.6797 121.649s22.2598 89.5459 62.6787 121.651c38.7207 30.7559 89.873 47.6953 144.028 47.6953l121.334 0.0878906l2.2207 -0.0966797s-0.119141 0.0126953 -0.34375 0.0253906
c0.141602 -0.00976562 13.8652 -0.704102 22.9238 7.84082c6.41406 6.05078 9.90527 16.1875 10.3984 30.165v32.8701c0 65.7119 -66.3281 119.173 -147.857 119.173c-52.2969 0 -99.7129 -21.707 -126.835 -58.0635l-15 -20.1064l-40.2139 30l15 20.1064
c36.5459 48.9883 98.9941 78.2354 167.05 78.2354c52.0557 0 101.191 -17.0732 138.356 -48.0742c38.4795 -32.0967 59.6709 -75.166 59.6709 -121.271v-4.26562zM414.244 169.385l-0.000976562 125.418c-16.2119 -6.52246 -31.0205 -6.41992 -35.9668 -6.15723
l-120.55 -0.0869141c-42.8877 0 -82.957 -13.0742 -112.842 -36.8115c-28.1895 -22.3896 -43.7129 -51.6396 -43.7129 -82.3623s15.5234 -59.9736 43.7129 -82.3613c29.8848 -23.7373 69.9541 -36.8105 112.824 -36.8105c42.8711 0 82.9375 13.0732 112.822 36.8105
c28.1895 22.3877 43.7129 51.6387 43.7129 82.3613zM270.809 612.927c-46.3184 0 -84 37.6807 -84 84c0 46.3184 37.6816 84 84 84s84 -37.6816 84 -84s-37.6816 -84 -84 -84zM270.809 730.927c-18.748 0 -34 -15.252 -34 -34s15.252 -34 34 -34s34 15.252 34 34
s-15.252 34 -34 34z" />
    <glyph glyph-name="ae" unicode="&#xe6;" horiz-adv-x="898" 
d="M805.188 128.573l40.0762 -29.8965l-14.9492 -20.0381c-26.5352 -35.5693 -78.5723 -77.9668 -175.794 -77.9668c-66.1201 0 -127.702 30.7275 -173.399 86.5254c-8.79883 10.7451 -16.8125 22.1875 -24.0078 34.2256
c-9.87402 -27.7461 -28.3555 -53.0186 -54.3779 -73.6875c-38.7207 -30.7559 -89.8721 -47.6943 -144.027 -47.6943s-105.307 16.9365 -144.028 47.6943c-40.4189 32.1035 -62.6787 75.3047 -62.6787 121.648s22.2598 89.5459 62.6797 121.65
c38.7197 30.7568 89.8721 47.6943 144.028 47.6943c0 0 132.292 -5.47852 146.135 7.85938c6.34863 6.11719 9.90527 16.1885 10.3984 30.166v32.8701c0 65.7119 -66.3291 119.173 -147.857 119.173c-52.2969 0 -99.7119 -21.7061 -126.835 -58.0635l-15 -20.1064
l-40.2139 30l15 20.1064c36.5459 48.9883 98.9941 78.2354 167.05 78.2354c52.0547 0 101.19 -17.0732 138.356 -48.0742c24.6045 -20.5234 42.1279 -45.54 51.5742 -72.96c7.28613 12.1436 15.3867 23.6992 24.3057 34.5439c22.125 26.9062 48.0039 48.0898 76.916 62.9619
c30.0947 15.4814 62.1025 23.3945 95.1465 23.5254l0.291016 0.00195312h0.543945l0.220703 -0.000976562c53.5977 -0.135742 99.2598 -14.4541 132.082 -41.4287c31.3262 -25.7451 48.5791 -60.8486 48.5791 -98.8408c0 -39.7012 -19.7217 -77.9824 -54.1133 -105.025
c-37.1064 -29.1797 -89.2441 -44.6025 -150.776 -44.6025c0 0 -137.847 -0.0380859 -138.78 0.0839844c-1.58789 0.0166016 -9.95898 0 -16.1016 -6.03418c-14.6279 -14.3682 -10.2148 -36.1885 -10.2148 -36.1885c16.2871 -111.475 94.8857 -196.26 189.104 -196.26
c60.5459 0 107.477 20.0098 135.718 57.8643zM654.283 528.968c-93.6074 -0.138672 -171.749 -83.959 -188.601 -194.454c13.0996 4.79004 24.6074 4.78516 29.0166 4.55566h135.814c50.2109 0 91.6621 11.7236 119.87 33.9053
c22.583 17.7588 35.0215 41.0996 35.0215 65.7217c0 43.4297 -41.0303 90.167 -131.122 90.2715zM371.532 87.0234c28.1895 22.3867 43.7119 51.6377 43.7139 82.3633c0 0 -2.90527 123.022 -2.89062 124.317c-15.0557 -5.40918 -28.4277 -5.30664 -33.0771 -5.05859
l-120.551 -0.0869141c-42.8877 0 -82.957 -13.0752 -112.842 -36.8115c-28.1904 -22.3887 -43.7129 -51.6387 -43.7129 -82.3623c0 -30.7217 15.5244 -59.9727 43.7129 -82.3613c29.8857 -23.7383 69.9541 -36.8105 112.824 -36.8105
c42.8711 0 82.9375 13.0742 112.822 36.8105z" />
    <glyph glyph-name="ccedilla" unicode="&#xe7;" horiz-adv-x="534" 
d="M426.062 107.752l14.9482 20.04l40.0771 -29.8955l-14.9492 -20.0381c-33.0488 -44.3037 -87.3604 -72.3965 -147.811 -77.2188v-22.0078c12.832 -4.89648 24.5518 -13.4844 33.8721 -25.1328c14.083 -17.5977 21.8389 -40.6699 21.8389 -64.9678
s-7.75586 -47.3701 -21.8389 -64.9678c-15.165 -18.9521 -36.6729 -29.8213 -59.0088 -29.8213c-25.9668 0 -50.4854 14.6455 -65.583 39.1738l-13.1025 21.29l42.5811 26.209l13.1035 -21.29c6.01562 -9.77734 14.3994 -15.3838 23.002 -15.3838
c16.7207 0 30.8467 20.5107 30.8467 44.7891c0 24.2773 -14.126 44.7891 -30.8467 44.7891h-25l0.137695 69.0352c-22.0732 3.44238 -43.5361 10.4795 -64.1045 21.0596c-28.9131 14.873 -54.791 36.0576 -76.916 62.9639
c-44.6953 54.3516 -69.3086 126.325 -69.3086 202.659v0.779297c0 76.335 24.6133 148.309 69.3057 202.661c22.125 26.9062 48.0029 48.0898 76.916 62.9619c30.1836 15.5264 62.292 23.4414 95.4365 23.5264v0.000976562h0.543945
c67.6123 -0.15625 129.613 -29.2793 165.937 -77.9668l14.9492 -20.041l-40.0771 -29.8975l-14.9492 20.0391c-26.9785 36.167 -74.1123 57.7852 -126.117 57.8643c-105.867 -0.169922 -191.944 -107.385 -191.944 -239.149v-0.779297
c0 -131.762 86.0771 -238.979 191.944 -239.149c52.0049 0.0791016 99.1387 21.6982 126.117 57.8652z" />
    <glyph glyph-name="egrave" unicode="&#xe8;" horiz-adv-x="542" 
d="M449.871 128.573l40.0771 -29.8975l-14.9492 -20.0381c-26.5352 -35.5693 -78.5732 -77.9668 -175.794 -77.9668c-66.1211 0 -127.702 30.7285 -173.4 86.5254c-31.0811 37.9512 -52.3799 84.626 -62.3506 135.473l-3.42383 20.875
c-2.00879 15.1592 -3.03027 30.6191 -3.03027 46.2725c0 76.334 24.6143 148.308 69.3066 202.663c22.125 26.9072 48.0029 48.0898 76.916 62.9619c30.0947 15.4814 62.1035 23.3945 95.1465 23.5254l0.291016 0.00195312h0.543945l0.22168 -0.000976562
c53.5957 -0.135742 99.2588 -14.4541 132.082 -41.4287c31.3262 -25.7461 48.5801 -60.8506 48.5801 -98.8418c0 -39.7012 -19.7236 -77.9814 -54.1143 -105.025c-37.1074 -29.1797 -89.2451 -44.6025 -150.777 -44.6025c0 0 -137.847 -0.0380859 -138.779 0.0839844
c-1.58887 0.0166016 -10.1426 0.178711 -16.1035 -6.03418c-15.2246 -15.8682 -10.2822 -35.7451 -10.2822 -35.7451c16.1436 -111.692 94.8281 -196.703 189.174 -196.703c60.5449 0 107.477 20.0098 135.718 57.8643zM298.966 528.967
c-93.6094 -0.138672 -171.747 -83.958 -188.601 -194.453c13.1006 4.79102 24.6084 4.78516 29.0176 4.55566h135.812c50.2109 0 91.6611 11.7246 119.869 33.9053c22.584 17.7588 35.0215 41.1006 35.0215 65.7217c0.00195312 43.4297 -41.0283 90.167 -131.12 90.2705z
M175.922 744.316l30.3984 39.6943l164.707 -126.139l-30.3994 -39.6943z" />
    <glyph glyph-name="eacute" unicode="&#xe9;" horiz-adv-x="542" 
d="M449.871 128.573l40.0771 -29.8975l-14.9492 -20.0381c-26.5352 -35.5693 -78.5732 -77.9668 -175.794 -77.9668c-66.1211 0 -127.702 30.7285 -173.4 86.5254c-31.0811 37.9512 -52.3799 84.626 -62.3506 135.473l-3.42383 20.875
c-2.00879 15.1592 -3.03027 30.6191 -3.03027 46.2725c0 76.334 24.6143 148.308 69.3066 202.663c22.125 26.9072 48.0029 48.0898 76.916 62.9619c30.0947 15.4814 62.1035 23.3945 95.1465 23.5254l0.291016 0.00195312h0.543945l0.22168 -0.000976562
c53.5957 -0.135742 99.2588 -14.4541 132.082 -41.4287c31.3262 -25.7461 48.5801 -60.8506 48.5801 -98.8418c0 -39.7012 -19.7236 -77.9814 -54.1143 -105.025c-37.1074 -29.1797 -89.2451 -44.6025 -150.777 -44.6025c0 0 -137.847 -0.0380859 -138.779 0.0839844
c-1.58887 0.0166016 -10.1426 0.178711 -16.1035 -6.03418c-15.2246 -15.8682 -10.2822 -35.7451 -10.2822 -35.7451c16.1436 -111.692 94.8281 -196.703 189.174 -196.703c60.5449 0 107.477 20.0098 135.718 57.8643zM298.966 528.967
c-93.6094 -0.138672 -171.747 -83.958 -188.601 -194.453c13.1006 4.79102 24.6084 4.78516 29.0176 4.55566h135.812c50.2109 0 91.6611 11.7246 119.869 33.9053c22.584 17.7588 35.0215 41.1006 35.0215 65.7217c0.00195312 43.4297 -41.0283 90.167 -131.12 90.2705z
M175.91 657.868l164.707 126.14l30.3994 -39.6943l-164.707 -126.139z" />
    <glyph glyph-name="ecircumflex" unicode="&#xea;" horiz-adv-x="543" 
d="M455.871 128.573l40.0771 -29.8975l-14.9492 -20.0381c-26.5352 -35.5703 -78.5732 -77.9668 -175.794 -77.9668c-66.1211 0 -127.702 30.7275 -173.4 86.5244c-31.0811 37.9521 -52.3799 84.626 -62.3506 135.474l-3.42383 20.875
c-2.00879 15.1582 -3.03027 30.6182 -3.03027 46.2715c0 76.334 24.6143 148.308 69.3066 202.664c22.125 26.9072 48.0029 48.0898 76.916 62.9619c30.0947 15.4814 62.1035 23.3945 95.1465 23.5254l0.291016 0.00195312h0.543945l0.22168 -0.000976562
c53.5957 -0.135742 99.2588 -14.4541 132.082 -41.4287c31.3262 -25.7461 48.5801 -60.8496 48.5801 -98.8418c0 -39.7002 -19.7227 -77.9805 -54.1143 -105.024c-37.1074 -29.1807 -89.2451 -44.6035 -150.777 -44.6035c0 0 -137.847 -0.0380859 -138.779 0.0839844
c-1.58887 0.0175781 -10.1426 0.178711 -16.1035 -6.03418c-15.2246 -15.8682 -10.2822 -35.7451 -10.2822 -35.7451c16.1436 -111.691 94.8281 -196.702 189.174 -196.702c60.5449 0 107.477 20.0088 135.718 57.8633zM304.966 528.966
c-93.6094 -0.138672 -171.747 -83.959 -188.601 -194.454c13.1006 4.79102 24.6084 4.78516 29.0176 4.55566h135.812c50.2109 0 91.6611 11.7246 119.869 33.9053c22.583 17.7588 35.0225 41.1016 35.0225 65.7217c0.00195312 43.4297 -41.0283 90.167 -131.12 90.2715z
M303.4 730.149l-111.048 -74.666l-28.5703 41.0361l139.352 96.7979l0.266602 -0.202148l139.62 -96.5957l-28.5723 -41.0361z" />
    <glyph glyph-name="edieresis" unicode="&#xeb;" horiz-adv-x="543" 
d="M450.871 128.573l40.0771 -29.8975l-14.9492 -20.0381c-26.5352 -35.5693 -78.5732 -77.9668 -175.794 -77.9668c-66.1211 0 -127.702 30.7285 -173.4 86.5254c-31.0811 37.9512 -52.3799 84.626 -62.3506 135.473l-3.42383 20.875
c-2.00879 15.1592 -3.03027 30.6191 -3.03027 46.2725c0 76.334 24.6143 148.308 69.3066 202.663c22.125 26.9072 48.0029 48.0898 76.916 62.9619c30.0947 15.4814 62.1035 23.3945 95.1465 23.5254l0.291016 0.00195312h0.543945l0.22168 -0.000976562
c53.5957 -0.135742 99.2588 -14.4541 132.082 -41.4287c31.3262 -25.7461 48.5801 -60.8506 48.5801 -98.8418c0 -39.7012 -19.7236 -77.9814 -54.1143 -105.025c-37.1074 -29.1797 -89.2451 -44.6025 -150.777 -44.6025c0 0 -137.847 -0.0380859 -138.779 0.0839844
c-1.58887 0.0166016 -10.1426 0.178711 -16.1035 -6.03418c-15.2246 -15.8682 -10.2822 -35.7451 -10.2822 -35.7451c16.1436 -111.692 94.8281 -196.703 189.174 -196.703c60.5449 0 107.477 20.0098 135.718 57.8643zM299.966 528.967
c-93.6094 -0.138672 -171.747 -83.958 -188.601 -194.453c13.1006 4.79102 24.6084 4.78516 29.0176 4.55566h135.812c50.2109 0 91.6611 11.7246 119.869 33.9053c22.584 17.7588 35.0215 41.1006 35.0215 65.7217c0.00195312 43.4297 -41.0283 90.167 -131.12 90.2705z
M210.937 673.717c-13.8086 0 -25 11.1914 -25 25v13.709c0 13.8066 11.1914 25 25 25c13.8057 0 25 -11.1934 25 -25v-13.709c0 -13.8096 -11.1934 -25 -25 -25zM390.937 673.717c-13.8096 0 -25 11.1914 -25 25v13.709c0 13.8066 11.1904 25 25 25
c13.8057 0 25 -11.1934 25 -25v-13.709c0 -13.8096 -11.1934 -25 -25 -25z" />
    <glyph glyph-name="igrave" unicode="&#xec;" horiz-adv-x="281" 
d="M107.553 0.0195312v578.98h50v-578.98h-50zM207.708 618.164l-164.708 126.14l30.3994 39.6943l164.708 -126.14z" />
    <glyph glyph-name="iacute" unicode="&#xed;" horiz-adv-x="279" 
d="M123.562 0.0195312v578.98h50v-578.98h-50zM70.3984 618.166l-30.3994 39.6934l164.707 126.139l30.3984 -39.6934z" />
    <glyph glyph-name="icircumflex" unicode="&#xee;" horiz-adv-x="364" 
d="M156.619 0.0195312v578.98h50v-578.98h-50zM181.618 729.499l-111.048 -74.666l-28.5693 41.0361l139.352 96.7979l0.265625 -0.202148l139.62 -96.5957l-28.5713 -41.0361z" />
    <glyph glyph-name="idieresis" unicode="&#xef;" horiz-adv-x="318" 
d="M132.7 0.0195312v578.98h50v-578.98h-50zM67 737.424c13.8066 0 25 -11.1934 25 -25v-13.709c0 -13.8096 -11.1934 -25 -25 -25c-13.8096 0 -25 11.1904 -25 25v13.709c0 13.8066 11.1904 25 25 25zM247 737.424c13.8066 0 25 -11.1934 25 -25v-13.709
c0 -13.8096 -11.1934 -25 -25 -25c-13.8096 0 -25 11.1904 -25 25v13.709c0 13.8066 11.1904 25 25 25z" />
    <glyph glyph-name="eth" unicode="&#xf0;" horiz-adv-x="171" 
 />
    <glyph glyph-name="ntilde" unicode="&#xf1;" horiz-adv-x="553" 
d="M420.332 513.692c38.4775 -41.5596 59.6699 -96.6846 59.6699 -155.221v-358.451h-50v358.451c0 94.0117 -69.9805 170.496 -156 170.496s-156 -76.4844 -156 -170.496v-358.451h-50v358.451c0 58.5361 21.1914 113.662 59.6689 155.221
c38.9717 42.0928 90.9385 65.2744 146.33 65.2744s107.358 -23.1807 146.331 -65.2744zM200.513 700.952l-10.6123 -22.6348l-45.2715 21.2246l10.6094 22.6367c15.252 32.5342 33.2969 50.8467 55.1641 55.9873c30.375 7.14062 55.4209 -12.7354 77.5205 -30.2676
c13.4287 -10.6553 30.1494 -23.916 38.9307 -21.8447c2.99414 0.705078 13.9336 5.51562 29.0605 37.8467l10.5947 22.6436l45.2891 -21.1904l-10.5967 -22.6455c-18.123 -38.7334 -38.1055 -59.4922 -62.8877 -65.3271
c-4.58887 -1.08008 -9.0791 -1.57227 -13.4619 -1.57227c-26.5146 0 -49.2275 18.0215 -68.0039 32.918c-11.2246 8.90625 -28.1875 22.3652 -35.002 20.7627c-0.915039 -0.214844 -9.28809 -2.84277 -21.333 -28.5371z" />
    <glyph glyph-name="ograve" unicode="&#xf2;" horiz-adv-x="616" 
d="M480.655 486.472c45.8662 -53.709 71.125 -124.875 71.125 -200.383s-25.2588 -146.671 -71.125 -200.38c-22.6309 -26.501 -49.0781 -47.3545 -78.6045 -61.9785c-30.8975 -15.3037 -63.7559 -23.0625 -97.6611 -23.0625c-33.9062 0 -66.7637 7.75879 -97.6621 23.0635
c-29.5273 14.625 -55.9746 35.4766 -78.6045 61.9785c-45.8672 53.708 -71.126 124.87 -71.126 200.379s25.2588 146.672 71.125 200.382c22.6309 26.5 49.0781 47.3545 78.6045 61.9795c30.8975 15.3027 63.7559 23.0625 97.6621 23.0625
s66.7646 -7.75879 97.6621 -23.0625c29.5273 -14.625 55.9736 -35.4775 78.6045 -61.9785zM304.392 50.6689c108.842 0 197.39 105.605 197.39 235.419s-88.5488 235.424 -197.39 235.424c-108.842 0 -197.391 -105.611 -197.391 -235.423s88.5488 -235.42 197.391 -235.42z
M206.837 744.314l30.3994 39.6943l164.705 -126.139l-30.3984 -39.6934z" />
    <glyph glyph-name="oacute" unicode="&#xf3;" horiz-adv-x="616" 
d="M480.655 486.472c45.8662 -53.709 71.125 -124.875 71.125 -200.383s-25.2588 -146.671 -71.125 -200.38c-22.6309 -26.501 -49.0781 -47.3545 -78.6045 -61.9785c-30.8975 -15.3037 -63.7559 -23.0625 -97.6611 -23.0625c-33.9062 0 -66.7637 7.75879 -97.6621 23.0635
c-29.5273 14.625 -55.9746 35.4766 -78.6045 61.9785c-45.8672 53.708 -71.126 124.87 -71.126 200.379s25.2588 146.672 71.125 200.382c22.6309 26.5 49.0781 47.3545 78.6045 61.9795c30.8975 15.3027 63.7559 23.0625 97.6621 23.0625
s66.7646 -7.75879 97.6621 -23.0625c29.5273 -14.625 55.9736 -35.4775 78.6045 -61.9785zM304.392 50.6689c108.842 0 197.39 105.605 197.39 235.419s-88.5488 235.424 -197.39 235.424c-108.842 0 -197.391 -105.611 -197.391 -235.423s88.5488 -235.42 197.391 -235.42z
M196.987 657.862l164.707 126.139l30.3994 -39.6934l-164.706 -126.139z" />
    <glyph glyph-name="ocircumflex" unicode="&#xf4;" horiz-adv-x="625" 
d="M486.655 486.472c45.8662 -53.709 71.125 -124.875 71.125 -200.383s-25.2598 -146.671 -71.125 -200.38c-22.6299 -26.5 -49.0781 -47.3545 -78.6045 -61.9785c-30.8975 -15.3037 -63.7559 -23.0625 -97.6611 -23.0625c-33.9062 0 -66.7637 7.75879 -97.6621 23.0635
c-29.5273 14.625 -55.9746 35.4766 -78.6045 61.9785c-45.8672 53.708 -71.126 124.869 -71.126 200.379c0 75.5088 25.2588 146.672 71.125 200.382c22.6309 26.5 49.0781 47.3545 78.6045 61.9795c30.8975 15.3027 63.7559 23.0625 97.6621 23.0625
s66.7656 -7.75879 97.6621 -23.0625c29.5273 -14.625 55.9736 -35.4775 78.6045 -61.9785zM310.392 50.6689c108.842 0 197.39 105.605 197.39 235.419s-88.5488 235.424 -197.39 235.424c-108.842 0 -197.391 -105.611 -197.391 -235.423s88.5488 -235.42 197.391 -235.42z
M310.39 730.146l-111.048 -74.666l-28.5693 41.0361l139.352 96.7979l0.265625 -0.202148l139.62 -96.5957l-28.5713 -41.0361z" />
    <glyph glyph-name="otilde" unicode="&#xf5;" horiz-adv-x="616" 
d="M480.655 486.472c45.8662 -53.709 71.125 -124.875 71.125 -200.383s-25.2588 -146.671 -71.125 -200.38c-22.6309 -26.501 -49.0781 -47.3545 -78.6045 -61.9785c-30.8975 -15.3037 -63.7559 -23.0625 -97.6611 -23.0625c-33.9062 0 -66.7637 7.75879 -97.6621 23.0635
c-29.5273 14.625 -55.9746 35.4766 -78.6045 61.9785c-45.8672 53.708 -71.126 124.87 -71.126 200.379s25.2588 146.672 71.125 200.382c22.6309 26.5 49.0781 47.3545 78.6045 61.9795c30.8975 15.3027 63.7559 23.0625 97.6621 23.0625
s66.7646 -7.75879 97.6621 -23.0625c29.5273 -14.625 55.9736 -35.4775 78.6045 -61.9785zM304.392 50.6689c108.842 0 197.39 105.605 197.39 235.419s-88.5488 235.424 -197.39 235.424c-108.842 0 -197.391 -105.611 -197.391 -235.423s88.5488 -235.42 197.391 -235.42z
M226.691 700.949l-10.6113 -22.6377l-45.2725 21.2236l10.6113 22.6357c15.251 32.5342 33.2959 50.8477 55.1641 55.9883c30.375 7.14062 55.4199 -12.7354 77.5195 -30.2676c13.4287 -10.6553 30.1504 -23.916 38.9316 -21.8447
c2.99316 0.705078 13.9326 5.51562 29.0596 37.8457l10.5947 22.6465l45.2881 -21.1875l-10.5957 -22.6455c-18.123 -38.7334 -38.1064 -59.4922 -62.8887 -65.3271c-4.58887 -1.08008 -9.0791 -1.57227 -13.4619 -1.57227c-26.5146 0 -49.2275 18.0215 -68.0039 32.917
c-11.2246 8.90625 -28.1875 22.3652 -35.002 20.7627c-0.915039 -0.214844 -9.28809 -2.84277 -21.333 -28.5371z" />
    <glyph glyph-name="odieresis" unicode="&#xf6;" horiz-adv-x="616" 
d="M480.655 486.472c45.8662 -53.709 71.125 -124.875 71.125 -200.383s-25.2588 -146.671 -71.125 -200.38c-22.6309 -26.501 -49.0781 -47.3545 -78.6045 -61.9785c-30.8975 -15.3037 -63.7559 -23.0625 -97.6611 -23.0625c-33.9062 0 -66.7637 7.75879 -97.6621 23.0635
c-29.5273 14.625 -55.9746 35.4766 -78.6045 61.9785c-45.8672 53.708 -71.126 124.87 -71.126 200.379s25.2588 146.672 71.125 200.382c22.6309 26.5 49.0781 47.3545 78.6045 61.9795c30.8975 15.3027 63.7559 23.0625 97.6621 23.0625
s66.7646 -7.75879 97.6621 -23.0625c29.5273 -14.625 55.9736 -35.4775 78.6045 -61.9785zM304.392 50.6689c108.842 0 197.39 105.605 197.39 235.419s-88.5488 235.424 -197.39 235.424c-108.842 0 -197.391 -105.611 -197.391 -235.423s88.5488 -235.42 197.391 -235.42z
M214.392 673.712c-13.8086 0 -25 11.1914 -25 25v13.709c0 13.8066 11.1914 25 25 25c13.8057 0 25 -11.1934 25 -25v-13.709c0 -13.8096 -11.1924 -25 -25 -25zM394.392 673.712c-13.8096 0 -25 11.1914 -25 25v13.709c0 13.8066 11.1904 25 25 25
c13.8057 0 25 -11.1934 25 -25v-13.709c0 -13.8096 -11.1934 -25 -25 -25z" />
    <glyph glyph-name="divide" unicode="&#xf7;" horiz-adv-x="608" 
d="M296.536 96.3564c26.751 0 45.0957 -19.873 45.0957 -48.1543c0 -27.5146 -17.5801 -48.1533 -45.8623 -48.1533c-26.751 0 -45.0967 20.6357 -45.0967 48.1533c0 28.2812 19.1104 48.1543 45.8633 48.1543zM59 277.875v48.9678h481.832v-48.9678h-481.832z
M295.77 499.848c-26.751 0 -45.0977 20.6367 -45.0967 48.1533c0 28.2803 19.1104 48.1543 45.8633 48.1543c26.751 0 45.0957 -19.874 45.0957 -48.1543c0 -27.5156 -17.5801 -48.1533 -45.8623 -48.1533z" />
    <glyph glyph-name="oslash" unicode="&#xf8;" horiz-adv-x="620" 
d="M556.476 579l-70.7588 -94.9961c44.5518 -53.4131 69.0645 -123.55 69.0645 -197.912c0 -75.5078 -25.2588 -146.671 -71.125 -200.38c-22.6299 -26.501 -49.0771 -47.3545 -78.6045 -61.9785c-30.8975 -15.3047 -63.7559 -23.0635 -97.6621 -23.0635
s-66.7646 7.75879 -97.6621 23.0635c-15.9902 7.91992 -31.0684 17.6816 -45.1348 29.1611l-39.3838 -52.875h-62.3398l65.916 88.4951c-44.377 53.3701 -68.7881 123.368 -68.7881 197.575c0 75.5088 25.2588 146.672 71.126 200.383
c22.6299 26.5 49.0781 47.3545 78.6045 61.9795c30.8975 15.3037 63.7559 23.0625 97.6621 23.0625s66.7646 -7.75977 97.6621 -23.0625c15.8643 -7.85938 30.8301 -17.5322 44.8018 -28.8955l44.2764 59.4434h62.3457zM110.001 286.09
c0 -59.8086 18.8076 -114.469 49.7256 -156.039l260.206 349.336c-31.9473 26.5391 -70.7441 42.127 -112.541 42.127c-108.842 0 -197.391 -105.61 -197.391 -235.424zM504.782 286.091c0 59.9795 -18.915 114.78 -49.9893 156.395l-260.271 -349.418
c32.0088 -26.7051 70.9297 -42.3975 112.87 -42.3975c108.841 0 197.39 105.607 197.39 235.421z" />
    <glyph glyph-name="ugrave" unicode="&#xf9;" horiz-adv-x="549" 
d="M429 578.967h49.998v-358.451c0 -58.5371 -21.1904 -113.662 -59.668 -155.223c-38.9727 -42.0918 -90.9395 -65.2744 -146.331 -65.2744s-107.358 23.1807 -146.33 65.2744c-38.4785 41.5605 -59.6689 96.6855 -59.6689 155.223v358.451h50v-358.451
c0 -94.0117 69.9805 -170.496 156 -170.496s156 76.4844 156 170.496v358.451zM175.446 744.313l30.3994 39.6943l164.706 -126.139l-30.3994 -39.6934z" />
    <glyph glyph-name="uacute" unicode="&#xfa;" horiz-adv-x="549" 
d="M429 578.967h49.998v-358.451c0 -58.5371 -21.1904 -113.662 -59.668 -155.223c-38.9727 -42.0918 -90.9395 -65.2744 -146.331 -65.2744s-107.358 23.1807 -146.33 65.2744c-38.4785 41.5605 -59.6689 96.6855 -59.6689 155.223v358.451h50v-358.451
c0 -94.0117 69.9805 -170.496 156 -170.496s156 76.4844 156 170.496v358.451zM175.436 657.866l164.708 126.139l30.3994 -39.6934l-164.708 -126.14z" />
    <glyph glyph-name="ucircumflex" unicode="&#xfb;" horiz-adv-x="555" 
d="M433 578.967h49.998v-358.451c0 -58.5371 -21.1904 -113.662 -59.668 -155.223c-38.9727 -42.0918 -90.9395 -65.2744 -146.331 -65.2744s-107.358 23.1797 -146.33 65.2744c-38.4785 41.5605 -59.6689 96.6855 -59.6689 155.223v358.451h50v-358.451
c0 -94.0117 69.9805 -170.496 156 -170.496s156 76.4844 156 170.496v358.451zM276.997 729.499l-111.048 -74.666l-28.5693 41.0361l139.352 96.7979l0.265625 -0.202148l139.62 -96.5957l-28.5713 -41.0361z" />
    <glyph glyph-name="udieresis" unicode="&#xfc;" horiz-adv-x="549" 
d="M429 578.967h49.998v-358.451c0 -58.5371 -21.1904 -113.662 -59.668 -155.223c-38.9727 -42.0918 -90.9395 -65.2744 -146.331 -65.2744s-107.358 23.1807 -146.33 65.2744c-38.4785 41.5605 -59.6689 96.6855 -59.6689 155.223v358.451h50v-358.451
c0 -94.0117 69.9805 -170.496 156 -170.496s156 76.4844 156 170.496v358.451zM182.998 673.715c-13.8086 0 -25 11.1914 -25 25v13.709c0 13.8066 11.1904 25 25 25c13.8066 0 25 -11.1934 25 -25v-13.709c0 -13.8096 -11.1934 -25 -25 -25zM362.998 673.715
c-13.8086 0 -25 11.1914 -25 25v13.709c0 13.8066 11.1904 25 25 25c13.8066 0 25 -11.1934 25 -25v-13.709c0 -13.8096 -11.1934 -25 -25 -25z" />
    <glyph glyph-name="OE" unicode="&#x152;" horiz-adv-x="1022" 
d="M956.642 0.00976562l-467.035 -0.641602v25.2578c-35.7881 -16.7969 -73.542 -25.2939 -112.646 -25.2939c-43.541 0 -85.7139 10.6514 -125.354 31.6592c-37.8135 20.041 -71.6729 48.6035 -100.637 84.8965c-58.6641 73.5088 -90.9717 170.917 -90.9717 274.281
s32.3076 200.772 90.9736 274.28c28.9639 36.292 62.8232 64.8555 100.637 84.8965c39.6396 21.0078 81.8145 31.6602 125.354 31.6602c39.0996 0 76.8555 -8.49609 112.646 -25.293v27.7715l466.986 0.259766l0.0263672 -50l-417.014 -0.231445v-302.802
c11.9824 4.68848 25.8027 7.06348 41.4014 7.06348h375.6v-50h-375.599c-15.9434 0 -27.3193 -3.59375 -33.8115 -10.6826c-6.51074 -7.11133 -7.46875 -17.1426 -7.59082 -20.8203v-306.832l416.966 0.570312zM376.959 49.3301c39.3936 0 77.2646 10.7285 112.646 31.8809
v617.921c-35.3828 21.1523 -73.2549 31.877 -112.646 31.877c-147.203 0 -266.961 -152.899 -266.961 -340.839s119.758 -340.84 266.961 -340.84z" />
    <glyph glyph-name="oe" unicode="&#x153;" horiz-adv-x="990" 
d="M896.782 128.573l40.0762 -29.8965l-14.9492 -20.0381c-26.5342 -35.5693 -78.5723 -77.9668 -175.794 -77.9668c-66.1211 0 -127.701 30.7275 -173.399 86.5254c-18.2539 22.2881 -33.1289 47.5898 -44.3213 74.9756
c-11.6719 -27.9414 -27.3584 -53.7666 -46.7402 -76.4619c-22.6299 -26.501 -49.0771 -47.3545 -78.6045 -61.9785c-30.8975 -15.3047 -63.7559 -23.0635 -97.6621 -23.0635s-66.7646 7.75879 -97.6621 23.0635c-29.5273 14.625 -55.9736 35.4775 -78.6045 61.9785
c-45.8662 53.709 -71.125 124.872 -71.125 200.38c0 75.5088 25.2588 146.672 71.126 200.384c22.6299 26.5 49.0781 47.3535 78.6045 61.9785c30.8975 15.3037 63.7559 23.0625 97.6621 23.0625s66.7646 -7.75977 97.6621 -23.0625
c29.5273 -14.625 55.9736 -35.4775 78.6045 -61.9785c18.5996 -21.7812 33.8096 -46.4336 45.3213 -73.0811c11.4414 28.9268 26.9707 55.6465 46.2441 79.085c22.124 26.9062 48.002 48.0898 76.915 62.9619c30.0938 15.4814 62.1025 23.3945 95.1455 23.5254
l0.290039 0.00195312h0.543945l0.222656 -0.000976562c53.5967 -0.135742 99.2588 -14.4541 132.081 -41.4287c31.3271 -25.7451 48.5801 -60.8477 48.5801 -98.8408c0 -39.7021 -19.7246 -77.9824 -54.1162 -105.025
c-37.1064 -29.1797 -89.2441 -44.6025 -150.776 -44.6025c0 0 -137.847 -0.0380859 -138.779 0.0839844c-1.58984 0.015625 -10.1406 0.178711 -16.1016 -6.03418c-15.2246 -15.8691 -10.2822 -35.7451 -10.2822 -35.7451
c16.1436 -111.692 94.8271 -196.703 189.173 -196.703c60.5459 0 107.478 20.0098 135.719 57.8643zM745.879 528.969c-93.6084 -0.138672 -171.748 -83.959 -188.602 -194.453c13.1006 4.79004 24.6084 4.78516 29.0176 4.55664h135.814
c50.2119 0 91.6611 11.7236 119.87 33.9053c22.583 17.7588 35.0215 41.0986 35.0215 65.7217c0 43.4287 -41.0303 90.167 -131.122 90.2695zM305.391 50.6729c108.841 0 197.39 105.605 197.39 235.419s-88.5479 235.424 -197.39 235.424
s-197.391 -105.611 -197.391 -235.423s88.5488 -235.42 197.391 -235.42z" />
    <glyph glyph-name="mu" unicode="&#x3bc;" horiz-adv-x="561" 
d="M436 784l49.998 -0.00195312v-350.451c0 -58.5371 -21.1904 -113.662 -59.668 -155.222c-38.9717 -42.0918 -90.9395 -65.2734 -146.331 -65.2734c0 0 -122.142 0.138672 -122.66 0.191406c-1.58301 0.03125 -14.251 0.0566406 -22.8213 -8.10449
c-6.97949 -6.64648 -10.5186 -18.0283 -10.5186 -33.8301v-171.29h-50v783.98h50v-527.219c16.2607 6.66309 31.0977 6.63184 35.8379 6.40527l120.19 -0.132812c85.9912 0 155.973 76.4844 155.973 170.496v350.451z" />
    <glyph glyph-name="perthousand" unicode="&#x2030;" horiz-adv-x="921" 
d="M508.973 784.006l54.8926 -0.00585938l-452.661 -783.98h-55zM176.735 507.797c-69.8818 0 -126.735 59.7109 -126.734 133.104c0 73.3936 56.8525 133.104 126.734 133.104c69.8828 0 126.736 -59.708 126.736 -133.104c0 -73.3936 -56.8525 -133.104 -126.736 -133.104
zM176.735 726.411c-43.6377 0 -79.1396 -38.3594 -79.1396 -85.5107c0 -47.1494 35.502 -85.5088 79.1396 -85.5088c43.6396 0 79.1426 38.3604 79.1426 85.5088c0 47.1514 -35.5029 85.5107 -79.1426 85.5107zM449.892 266.53c69.8828 0 126.737 -59.7119 126.737 -133.104
s-56.8545 -133.104 -126.737 -133.104c-69.8818 0 -126.735 59.7109 -126.735 133.104c0 73.3926 56.8535 133.104 126.735 133.104zM449.893 47.917c43.6387 0 79.1416 38.3584 79.1416 85.5088c0 47.1514 -35.5029 85.5098 -79.1416 85.5098
c-43.6377 0 -79.1396 -38.3604 -79.1396 -85.5098c0 -47.1504 35.502 -85.5088 79.1396 -85.5088zM744.353 266.53c69.8828 0 126.737 -59.7119 126.737 -133.104s-56.8535 -133.104 -126.737 -133.104c-69.8809 0 -126.734 59.7109 -126.734 133.104
c0 73.3926 56.8525 133.104 126.734 133.104zM744.354 47.917c43.6377 0 79.1406 38.3594 79.1426 85.5088c0 47.1514 -35.5039 85.5098 -79.1426 85.5098c-43.6367 0 -79.1387 -38.3604 -79.1387 -85.5098c0 -47.1504 35.502 -85.5088 79.1387 -85.5088z" />
    <glyph glyph-name="Euro" unicode="&#x20ac;" horiz-adv-x="767" 
d="M663.07 182.729l13.2012 21.4443l42.8945 -26.4014l-13.2002 -21.4473c-28.8076 -46.8018 -66.4385 -85.6396 -108.828 -112.316c-44.4912 -27.9971 -94.6416 -42.7949 -145.029 -42.7949c-43.7041 0 -86.0381 10.6641 -125.829 31.6943
c-37.9629 20.0654 -71.957 48.6641 -101.038 85.0059c-42.0547 52.5547 -70.6084 117.312 -83.5107 187.724h-87.7285v50.3691h81.2676c-0.90332 12.0889 -1.37598 24.2871 -1.37598 36.5742c0 8.50293 0.240234 16.9619 0.674805 25.375h-80.5674v50.3691h85.8096
c11.8359 74.7402 41.1562 143.592 85.4316 198.922c29.0801 36.3398 63.0752 64.9404 101.038 85.0059c39.791 21.0312 82.126 31.6943 125.829 31.6943c50.3867 -0.000976562 100.538 -14.7979 145.028 -42.7949c42.3887 -26.6729 80.0205 -65.5117 108.829 -112.315
l13.2012 -21.4473l-42.8955 -26.4023l-13.2021 21.4473c-51.2988 83.3438 -128.191 131.146 -210.963 131.146c-127.248 0 -234.046 -113.56 -261.175 -265.255h258.443v-50.3682h-264.372c-0.486328 -8.37891 -0.741211 -16.8398 -0.741211 -25.375
c0 -12.3564 0.532227 -24.5557 1.54395 -36.5742h263.567v-50.3691h-256.276c30.2725 -146.049 134.914 -254.056 259.01 -254.056c82.7734 0 159.665 47.7998 210.963 131.146z" />
    </font>
</defs>
</svg>
